<?xml version="1.0" encoding="UTF-8"?><svg id="Layer_2" xmlns="http://www.w3.org/2000/svg" viewBox="0 0 200.0058 171.0043"><g id="Components"><g id="_27dcb34d-bc89-44bd-aadb-76ee66612870_16"><g id="_554a51d4-c36e-4517-af04-1864d08eb720_4"><path d="M184.8172,59.8179c-.0181-.004-.0337-.0079-.0518-.0119-.3092.1263-.6139.2734-.9075.4329.3495-.139.697-.2761,1.0466-.4091-.0298-.004-.0576-.0059-.0874-.0119h.0001Z" style="fill:#214e5a;"/><path d="M162.2338,71.0105c.0034.0005.0066.0009.0099.0013-.0032-.0016-.0067-.0008-.0099-.0013Z" style="fill:#214e5a;"/><path d="M195.8304,115.0283c-.3867-.5327-2.1563-1.0905-3.2366-.924-.0877-1.8845-1.7957-3.7474-3.7551-3.6354-.1431-2.3112-.2549-4.6284-.1968-6.9455.0063-3.5773.9734-7.1725.3843-10.7339,1.1134-.6446,2.5907-.8257,3.2976-1.986.5911-1.2664-.1295-2.7911-1.2148-3.5679,1.0536-.555,2.1406-1.0648,3.1521-1.6906-.0015-.0013-.0029-.0027-.0042-.004.158-.1533.24-.3707.22-.5908.865-1.4631-.3578-4.0762-2.2935-3.5945-.2249-.7861-.5323-1.5627-.7061-2.3689.0039-.0018.0076-.0036.0112-.0054-.0142-.0674-.0273-.1353-.04-.2034-.0078-.0015-.0144-.007-.0225-.0087-1.3347-5.4652-.4167-11.0561.8867-16.4399.2806-.1319.6124-.2486.7339-.562.7068.3396,1.4332-.6054,1.9766-.929,1.4575-1.1457.3611-2.9274-1.0015-3.706-.0337-.5669-.7073-.723-1.209-.752-4.3047-.5379-8.5682-1.3776-12.8704-1.8757,4.1533-4.0071,8.2832-8.0395,12.5552-11.9221,1.3404-1.3643,3.7632-2.8001,3.2727-5.0085-.48-.965-1.5854-1.5245-2.6802-1.5601-.3743-.9929-2.7007-2.2318-3.2974-2.904.0481-.052.0889-.0978.1384-.1543-.0831-.2691-.2945-.4834-.3938-.7509-.0285.0331-.0597.0642-.0884.0974-.321-1.1896-.0713-2.522-.1909-3.7926.0674-.1398.0615-.2804.0151-.4073.3821-.04.7332-.4341.4968-.8704-.5483-.7541-1.6008-.8852-2.4102-1.2437-.8115-.2933-1.6619-.5891-2.4973-.8745,1.0605-1.2039,2.1355-2.3953,3.2432-3.558.5259-.3828.2891-.9011-.1091-1.0345-.0498-.1621-.165-.3055-.3804-.3708-.9355-.2543-1.7769-.4208-2.762-.6381,1.0662-1.1761,2.102-2.3817,3.1758-3.552.3564-.3056.1418-.9771-.331-.9935-.0454-.2606-.2297-.4803-.4873-.5616-.9053-.2269-1.8335-.3394-2.7427-.5654-3.5885-.7845-7.0454-2.0447-10.5549-3.1145-9.5854-2.9683-19.2932-6.1944-29.3559-6.9271-5.0488-.305-10.0212.7653-14.9222,1.8432-6.934,1.681-13.6779,4.3795-19.0712,9.1785-6.2012-6.766-11.1655-10.5354-20.1593-12.391C82.0047-.0368,73.1164-.5424,64.4377.5381c-2.5542.2804-5.1225.4712-7.6908.5596-.0046-.4228-.567-.6921-.8998-.4164-.2342.1936-.5002.4009-.7962.6355-6.2706,4.9887-12.5599,9.9496-18.8167,14.956-7.4779,5.9601-14.9443,11.9334-22.3912,17.9308-.6304.4639-1.1844,1.048-1.8647,1.4299-.3927.23-.5427.7981-.2321,1.1515.0217.2181.145.4251.3843.4863.6552.0267,1.3108.0621,1.9667.0997-.8601.8462-1.7955,1.618-2.7052,2.408-.3586.2363-.7155.7059-.707,1.096-.4758,1.0778,1.0476.822,1.6726.8931-.1386,1.8156-1.6691,3.1467-2.4105,4.719-.7461,1.3759-1.3834,2.9576-1.2646,4.5445-.514.0558-.8765.562-1.2488.8822-.963,1.0243-1.8779,2.1144-2.5896,3.3304-.1255.2194-.0973.487.0547.6737-.5806.873-.9116,2.0627-.0305,2.1516.3226.011.563-.2458.59-.556.0874-.5396.4071-1.0208.7418-1.4412.4565-.1404.4497-.7491.1187-.9801.6422-.8586,1.2648-1.718,2.0359-2.4564.2423.2503.6472.4058.9766.4839,1.9998.5551,4.0552.9294,6.1206,1.136,7.0463.8229,14.1143-.0292,21.134-.715,6.5393-.5899,13.1147-.6733,19.6885-.7169,7.0791-.1807,11.0981-.2824,17.0972,2.8496-2.3243,1.1283-5.1376.7413-7.6613,1.0109-7.7082.266-15.5023.2168-23.2201.2555.118-.5403-.6137-.5262-.6073.0067-6.8335.0627-13.6715.3631-20.5125.5307-.1362-.1334-.323-.2137-.5164-.1911-2.3603.5168-4.8488.2043-7.259.3734l-.0051-.0066c-.2402-.0079-.4825-.0139-.7229-.0219.0115.0147.0227.0298.0342.0446-2.264.0598-4.48.0793-6.7485.1683-.4052.0238-.9811-.0278-1.1757.4151-.1639.3551.1222.7917.5143.8004,2.7258-.1655,5.467-.2305,8.2114-.2767-2.3214.5376-4.3739,1.1361-6.4504,2.4958-.3078-.0637-.645.2216-.6284.5941-.2548.3322-.3854.7051-.2869,1.1252v-.0199c.0159.1273.0612.2216.1165.3016-.0403.3284-.0822.6564-.1193.9855-.1558.1574-.2181.4288-.0751.619-.4094,3.8316-.6252,7.7023-.8314,11.5443-.0122,3.762-.6398,9.0734.8647,12.7839.0856.0131.1296.1222.0809.1932.0454.105.0964.2057.1456.308-.0264-.0013-.0526-.0071-.079-.0068.2708.2601.4109.6527.7214.857-.0006,0-.0012,0-.0017-.0003.0005.0003.0012.0005.0017.0009-.0027-.0005-.0049-.0016-.0066-.0016.0081.004.0159.0079.022.0099.1443-.0661.2397.1266.1389.2303.1009-.0044.234.0142.2404.141.1129.0118.226.0237.339.0355-1.2585.8877-2.5414,1.6846-3.9429,2.3796.002,0,.002.002.002.002-1.7229.9735-3.2387,2.2268-1.5366,4.5763-.0076-.0005-.015-.0011-.0225-.0016.6944.8116,1.9395,1.2719,2.9692,1.4026.0574.439.104.8783.1412,1.3181-.0865-.0071-.173-.0145-.2594-.0215.0732.1929.135.3885.1884.5864.0375.0033.0748.0066.1122.0099.1618,4.4648.2136,8.9613.2791,13.4521-.0107-.001-.0216-.002-.0325-.0031-.0343.1899-.0529.3797-.0317.5722.0182.0017.0364.0034.0544.0051-.0188,1.3869-.195,2.751-.3945,4.1251-1.7313.0955-3.5908,1.7135-3.2857,3.5577.4485,1.4294,1.7708,2.1258,3.1907,2.5679-.6997.0675-1.3126.5934-1.9778.8117-.4289.0577-.7609.4207-1.1091.6554.0176.0534.014.1138.0259.1694-1.085,1.6852-1.395,3.7372-1.7148,5.6837-.6752,5.0635-.7253,10.2195-.1727,15.2955.3296,2.1007.4656,4.4765,1.817,6.206.2877.2947.6836.4931,1.0873.4931.7.2389,1.3625.4319,2.0972.5767-.0034.0342-.0007.0686-.0046.1027,47.334,5.2335,94.7425,9.7686,142.1091,14.6909,1.5984.1634,3.203.3213,4.8022.4835.1617.3682.6418.4252.9334.1748,2.4189-1.5629,4.8159-3.1596,7.2208-4.7423,10.7848-7.1244,21.6277-14.2144,32.4479-21.2573h-.0002c1.2083-1.1676,2.5316-2.3799,2.8481-4.1172.251-1.6514-1.2019-2.994-2.708-3.0437.259-.6005-.5055-.8758-.958-1.1064.0342-.0197.0691-.0384.103-.0581-.066-.1971-.2003-.3702-.26-.566-.0933.054-.1873.1066-.2805.1605-.1784-.7413-.0403-1.5657-.0457-2.3403.0718-.0432.1445-.0838.2161-.127.0261-.268.0651-.5367.0378-.8043-.0737.0449-.1484.0886-.2222.1334.0234-.6149.0366-1.2444.0605-1.863.0122-.0076.0244-.0149.0366-.0225.0997-2.4941-.0358-5.4682.5049-7.8357-.0444.0244-.0889.0487-.1333.0731.0679-.7808.1426-1.5605.2383-2.3365,1.1229-.653,2.2321-1.3277,3.3477-1.9902h.002c.2263-.1551.333-.4329.2861-.6993.6418-1.0053.7332-2.3589-.1309-3.2808v.0004ZM190.6642,112.6766c1.0933,1.4511.5917,2.6482-.9317,3.4507-1.4041.8267-2.8575,1.5875-4.321,2.309-7.2917,3.4657-14.3184,7.8672-21.2744,12.0643-4.2043,2.636-8.3143,5.4714-12.7729,7.7496.3462-1.2345.1655-2.6351-.4351-3.7701.0142-.0469.0299-.0931.0339-.1431,10.6527-6.2494,21.4243-12.3371,32.0164-18.6708-.0012-.0007-.0024-.0014-.0034-.0021.0597-.0751.1001-.1633.1259-.2563,1.9832-1.2776,3.8476-2.6921,5.9677-3.7408.6372.0822,1.2058.4545,1.5947,1.0097h0ZM82.9291,127.3028c-.248-.0236-.5223-.0505-.8365-.0777-.2674-.0246-.5661-.0529-.8622-.0804-.5322-.0488-1.0684-.101-1.613-.1501-.6768-.064-1.3919-.1301-2.1191-.1982.0006,0,.0012,0,.002.0002-23.667-2.1694-47.343-4.2931-71.0383-6.4637.29-.5826.2729-1.6587.3816-2.2486,47.6189,4.5208,95.2296,9.115,142.8574,13.5366-.345.1589-.1091.695.2454.5104,1.8905-1.1072,3.7699-2.233,5.6538-3.3542,10.6537-6.3327,21.2969-12.6769,31.9578-18.9991.0464.3685-.0197.7783.1169,1.1264-.0298.0685-.0427.1416-.043.2158-12.3098,7.7461-25.0114,14.9271-37.5122,22.3832-.0066-.0012-.0125-.0048-.019-.0059.0002-.0002.0005-.0004.0007-.0007-.7163-.0726-1.4406-.1362-2.1606-.2085.001.0011-.0383-.0026-.0776-.0065-21.6406-2.0045-43.2282-3.9841-64.9336-5.9791h.0002-.0007ZM149.5206,129.4007c.0833.0856.2054.097.304.0636,12.555-7.1719,25.0765-14.411,37.6313-21.5839.0154.3835.0396.7704.0601,1.1553-12.4853,7.4778-24.9996,14.9111-37.486,22.3867.1173-.1702.0197-.4136-.1646-.4851v-.002c-47.6291-4.6018-95.2996-8.9453-142.9465-13.4142.0826-.7133.1335-1.4275.1617-2.1423,47.4859,4.6076,94.9852,9.1489,142.4827,13.5942-.149.0907-.159.3102-.0427.4276h0ZM149.7975,125.8434c-47.5668-4.5949-95.1373-9.164-142.71-13.7044-.0161-.5533-.0355-1.1069-.0592-1.6605,45.0167,4.2573,90.0415,8.4535,135.0697,12.5879v-.002c2.3687.1917,4.7332.4399,7.0999.6596-.1113.2314.1611.4752.3841.3491,2.2989-1.2454,4.5875-2.5047,6.8813-3.7613,10.3209-5.6416,20.6317-11.3027,30.9685-16.9154-.01.3309-.0142.6617-.0183.9924-12.4202,7.3088-24.8763,14.5662-37.2903,21.8854.0554-.2014-.1232-.4176-.3257-.4308ZM149.7071,118.9086c.1836.2923.4935.0472.7168-.0616,4.0505-2.0952,8.095-4.1955,12.1439-6.2973,8.3751-4.3376,16.7342-8.707,25.1232-13.0186-.03.2846-.0615.5691-.0784.8547-12.4009,6.972-24.8374,13.8832-37.2478,20.8384-.0168-.1316-.0386-.2622-.0496-.3958-47.8035-4.8659-95.6114-9.7001-143.4272-14.433-.0054-.384-.0117-.768-.0081-1.1518,47.6136,4.5143,95.2315,8.958,142.8533,13.3894-.053.0851-.0754.1882-.0261.2757h0ZM149.8729,123.2696c-.0757-.3586-.4488-.3204-.7388-.3442-3.116-.2696-6.2441-.5751-9.3596-.8719-9.8782-.9112-19.7541-1.8252-29.6318-2.7366-34.3746-3.194-68.7554-6.3058-103.1382-9.4168-.0426-.9661-.0847-1.9323-.1079-2.8981,47.6353,4.9227,95.2776,9.757,142.9275,14.5433-.3371.3285.1157.6735.4521.3737,2.3344-1.286,4.6595-2.5864,6.9885-3.8844,10.0977-5.6131,20.1823-11.2553,30.2908-16.8503-.0356.4647-.0779.9302-.0996,1.3933-12.5086,6.9314-25.0559,13.7936-37.583,20.6919h0ZM189.5172,91.1346c-.3173-.1757-.6875-.0789-.9861.1101-2.9363,1.5125-5.8765,3.0226-8.8097,4.5399-9.3904,4.878-18.7894,9.7379-28.1602,14.6537.609-.8429.9193-1.884.6991-2.916.0574-.0694.0873-.1616.0437-.2454.77-.3965,1.4998-.8551,2.2407-1.3088.0001.0013.0015.0023.0015.0036,11.7269-6.0288,23.4563-12.061,35.2092-18.0403.3113.1462.646.2558.8433.5817,1.3223,1.4713.197,2.1454-1.0815,2.6213v.0002ZM193.2806,84.1841c-.0662.1023-.1089.2158-.137.3314-12.7064,6.5571-25.3134,13.3167-38.0195,19.8783-.3453-.5511-1.2644-.3662-1.8715-.4798-4.7565-.4321-9.606-.899-14.4413-1.367-3.7324-7.647-4.6868-17.2528-.3846-24.9056,1.0935.103,2.1871.2051,3.2806.3068-3.199,5.356-2.6965,13.2103-1.6868,19.127.0696.3875.6626.3019.6337-.0774-.882-6.2754-1.5091-13.2037,1.6106-18.9975.0216.002.0433.0041.0651.0061.4563.0458.8261.0763,1.3225.1231.6877.0705,1.2846.1171,2.0074.1877-1.7842,3.1346-2.3688,6.8562-2.5082,10.419.0105.3964.6322.3953.6477.0059.1572-3.5552.6858-7.2334,2.4739-10.3675,1.0189.0912,2.0133.1985,3.0424.2828-.3277.4249-.9425,1.4857-1.5137,2.7183-1.7783,3.6662-1.4584,7.9335-1.3299,11.9105.0087.1805.1461.2656.2851.2656.1533,0,.3086-.1036.2949-.2973-.1408-3.4126-.2497-6.7104.6351-10.1425.0848-.0295.1593-.0836.1891-.1729.5161-1.4913,1.1951-2.922,2.1216-4.2178,1.2513.1149,2.5407.2369,3.8145.3535.1597.018.3323.0316.5049.0479-.0489.27.1506.5289.4128.5776-1.8347,4.7033-2.247,9.7835-2.0998,14.7937.0607,2.1948.2089,4.4466,1.0175,6.5027-.4976.4111-.0132,1.1955.5879.9846.4124.2076,1.0109-.0637,1.0627-.5429,7.7391-3.9434,15.4981-7.8455,23.2664-11.733,3.512-1.7794,7.0548-3.5003,10.5691-5.2765.7721-.5102,2.1497-.759,2.5723-1.5794,1.229-.5512,1.5086.223,1.5745,1.3345h0ZM61.3285,95.0151c-.0198-.002-.0397-.0038-.0596-.0058-1.8956-3.6638-2.4979-7.8248-2.7437-11.9113-.012-.1728-.1609-.3098-.3357-.2999-.1748.0079-.3098.1628-.3018.3356.2654,4.0249.8157,8.1891,2.6929,11.8088-1.124-.1091-2.248-.2182-3.3718-.3271.0585-.0653.0894-.1543.0527-.2625-.1681-.3584-.2236-.783-.4188-1.1161-.1371-.133-.4012-.0635-.453.1212-.0209.4143.2205.8211.3485,1.2118-2.4484-.2372-4.8969-.4752-7.3451-.7125-.4725-1.0007-.8178-2.0333-1.2163-3.1-.0576-.1589-.2284-.2522-.3933-.1986-.1588.0536-.2522.2324-.1985.3932.331.9584.7029,1.9091,1.1118,2.8378-1.1333-.1099-2.2668-.2197-3.4004-.3298-2.7026-6.1891-3.0844-13.4071-1.0535-19.8568.1521-.4499-.538-.6707-.6873-.2342-1.9919,6.5176-1.5746,13.7614,1.0769,20.0266-.7735-.0752-1.5469-.1497-2.3206-.2252-2.8801-3.9496-3.3828-9.0891-2.9712-13.8495.0369-.4474-.6538-.488-.6831-.0496-.3364,4.7021.1581,9.8608,2.902,13.8259-3.3414-.3259-6.6832-.6501-10.0245-.9757-2.0398-2.2096-2.9067-5.1413-3.415-8.0908v.0003c-.3605-2.2869-.4142-4.6184-.1885-6.9221.3911-3.4055,1.281-7.0245,3.7441-9.5514,7.0093.6699,13.9784,1.3268,20.9982,1.9835-2.1815,4.4764-2.7744,9.7147-2.5931,14.6519.0256.4041.6431.3583.6178-.0338-.1349-4.9012.3734-10.1156,2.5905-14.5605.9246.0864,1.86.1743,2.7874.2625-3.0597,6.8724-2.8647,14.9838-.4347,22.0312.1286.3928.7233.1823.5978-.1946-2.3233-6.7478-2.7342-15.2496.5399-21.77,4.986.4731,9.9817.95,14.9828,1.4182l-.002-.002c.028.0043.0571.0069.0853.0079h-.002c14.6595,1.3874,29.3426,2.7454,44.0072,4.1436-.698,1.1476-1.0088,2.5233-1.442,3.7896-.1196.3528.4247.5396.5441.1867.4029-1.2348.7447-2.5072,1.3376-3.6695.1145-.0717.1511-.1635.1458-.251.6522.0623,1.3044.124,1.9568.1862-3.1931,6.4943-2.7659,14.1514-1.0969,21.0243.0437.1603.231.2443.3832.1966.275-.0912.2115-.3857.1417-.5983-1.5823-6.7475-1.9855-14.1962,1.1765-20.5651,1.0593.101,2.1184.2015,3.1777.3022-.7474,1.3661-1.5614,5.0656-1.5728,5.4404-.2751,1.6532-.4194,3.3268-.4845,5.0006-.006.1589.1073.3018.2701.3137.156.0121.3079-.1111.3137-.272.1912-3.5184.5254-7.2305,2.1195-10.4212.8439.0802,1.6879.1608,2.5319.2408-.7107,1.486-1.2194,3.0607-1.6653,4.6436-.1201.3552.4331.5432.5481.1886.4464-1.6343,1.0073-3.2356,1.7043-4.7763.9144.0866,1.8289.1746,2.7434.261-3.2275,5.5299-3.2664,12.2838-2.5242,18.4883.0199.1607.1938.2661.3474.2383.4048-.1107.1765-.5893.1807-.8917-.6892-5.9975-.5534-12.4373,2.5867-17.7787.6797.0644,1.3595.129,2.0392.1938-1.9396,4.2767-2.9951,8.9616-2.8593,13.6675-.0002.1628.1569.2899.3136.282.1688-.0099.28-.1529.28-.3138-.1383-4.6601.9333-9.3338,2.8516-13.58.4965.0472.9928.0941,1.4891.1415-2.9052,7.1287-4.2526,18.0849.0446,24.8657-24.037-2.3063-48.0697-4.6783-72.1049-7.0137l.0003-.0003ZM19.4115,90.6958c-3.067-5.9367-1.6853-12.7644-.5599-19.033.0741-.3621-.4872-.4655-.5563-.1131-1.1471,6.3563-2.5321,13.3176.5715,19.3425-2.8281-.2721-5.6566-.5489-8.485-.8148-.1301-.5199-.8604-.4411-1.1962-.1129-.3345-.0318-.669-.0636-1.0037-.0948-1.7293-2.8003-1.5052-6.3154-1.5613-9.539.0641-5.0298.3467-10.0457.7967-15.0541,1.5902.1529,3.181.2989,4.7714.449-1.8965,6.0024-2.6074,12.4202-1.4615,18.6477.0677.3784.648.2642.5777-.1073-1.1297-6.161-.4195-12.5354,1.4696-18.4857.8735.0843,1.7288.1623,2.6454.2484-.5913,2.3403-.6799,3.8712-.9292,5.6093-.0326.3682.5446.4118.572.0417.2325-1.8654.4444-3.7688.952-5.5952,3.2672.3059,6.5451.6169,9.8413.9238-.4176.7055-.7407,1.4609-1.0748,2.1948-1.2001,3.117-1.6351,6.5286-1.8697,9.8538-.3377,4.3091.1601,8.8336,2.5936,12.4776-2.0357-.1985-4.0718-.3935-6.1077-.5909.0405-.0792.0593-.1682.0139-.2477h.0002ZM26.1346,90.1736c.6995-.3477,1.3977-.7009,2.0947-1.0595.187.4674.3896.9285.6223,1.3751-.6511.2897-1.3014.5806-1.951.8726-.2765-.383-.5316-.7791-.766-1.1881h0ZM26.6092,80.1966c-.8547.4752-1.7078.9519-2.5608,1.425-.011-.4678-.0112-.9414-.0024-1.4203.8595-.4854,1.724-.9614,2.5896-1.4349-.0195.4768-.031.9532-.0264,1.4302ZM26.626,80.8355c.0038.7557.0688,1.5077.1531,2.2589-1.3558.7743-1.8411,1.0108-2.5363,1.3689-.0865-.7072-.1431-1.4487-.1755-2.2093.8467-.4863,1.6997-.9589,2.5587-1.4185ZM25.8352,89.6255c-.3004-.5797-.5698-1.1748-.802-1.7862.7815-.4564,1.5664-.9059,2.3545-1.3483.1784.6954.3686,1.3898.6227,2.062-.7251.3575-1.4498.7154-2.1752,1.0724h0ZM24.8351,87.2747c-.2806-.6949-.375-1.3971-.4978-2.1656.8373-.4673,1.6774-.937,2.5217-1.3996.0988.7375.2336,1.469.3967,2.1948-.8079.4553-1.615.9119-2.4207,1.3704h.0001ZM26.6605,78.0911c-.8667.4816-1.7334.9634-2.6005,1.4448.0228-.6138.0651-1.2321.1193-1.8513.892-.5192,1.7853-1.0362,2.6814-1.5484-.0905.6488-.1571,1.3008-.2002,1.9549ZM27.1432,74.4806c-.0637.3088-.1067.6215-.1591.9326-.9133.5185-1.8259,1.0383-2.7378,1.5593.0466-.4349.1013-.8682.1635-1.2997.9355-.5104,1.8725-1.0174,2.8059-1.5313-.0234.1059-.0486.2206-.0725.3391ZM27.4191,73.3634c-.9618.533-1.9288,1.0562-2.8943,1.5825.0776-.4693.1647-.9329.2607-1.3914,1.0237-.5685,2.0488-1.1372,3.0789-1.6968-.1697.4956-.314.9985-.4453,1.5056h0ZM28.4261,70.3896c-.0999.2245-.1731.4594-.2632.6879-1.078.5668-2.149,1.1478-3.2177,1.733.0875-.3722.1814-.739.2814-1.0993,1.1508-.6046,2.2983-1.2181,3.4451-1.8348-.0833.1706-.1685.3405-.2456.5132ZM29.1324,69.0105c-1.2212.641-2.4445,1.2763-3.6675,1.9122.2397-.7675.5093-1.4958.8085-2.1776,1.3163-.452,2.5503-1.5843,3.983-1.3221-.4302.4867-.7971,1.0253-1.124,1.5875ZM26.6511,67.9418c.1409-.2819.2773-.5529.4358-.8179.3888.0365.777.0729,1.168.1098-.5345.2362-1.0704.4692-1.6038.7081ZM27.1211,91.6917c-.0157-.036-.0419-.0682-.0641-.1016.1937.0198.3857.054.5768.0963.5017-.2328,1.0048-.4609,1.5083-.688.1675.2894.3451.572.536.8466-.0566.0248-.113.0495-.1696.0743.077.004.1542.0073.2313.0103.0044.0062.009.0121.0134.0183-.8774-.0853-1.7546-.1713-2.6322-.2562h.0001ZM31.0829,91.6139c.0101.0125.0203.0248.0303.0369-.01-.0121-.0212-.0239-.0303-.0369ZM132.048,90.5005c.7411-.5742,1.485-1.143,2.2106-1.7443-.0098.4244-.0167.8484-.0081,1.2738-.7206.5841-1.4413,1.1684-2.1613,1.7532-.0227-.4271-.0364-.8546-.0413-1.2828h.0001ZM134.2726,88.017c-.7317.6055-1.4911,1.1618-2.2305,1.7528.0059-.5177.0278-1.0354.0588-1.5529.7706-.6393,1.5419-1.2778,2.311-1.9204-.064.57-.1111,1.1439-.1394,1.7205h0ZM134.5355,85.435c-.7849.6674-1.5838,1.3197-2.3772,1.9777.0526-.6213.1239-1.241.2117-1.8587.8264-.6506,1.6621-1.2889,2.4978-1.9269-.1323.5956-.2433,1.198-.3323,1.8079ZM135.0624,82.7609c-.8525.667-1.7167,1.3107-2.5676,1.9767.0569-.3395.1219-.6776.1892-1.0151.9198-.74,1.8426-1.4768,2.7588-2.2213-.1357.4158-.2686.833-.3804,1.2596h0ZM135.8256,80.443c-.9787.7995-1.9653,1.5892-2.95,2.3817.1023-.4481.2139-.8936.3342-1.3366,1.1152-.9276,2.2357-1.8484,3.3699-2.75-.2771.5533-.5286,1.1215-.7542,1.7049h0ZM133.4811,80.5334c.1383-.4553.2874-.9065.4446-1.3545.752-.5674,1.489-1.1569,2.2222-1.7535.365.0348.73.0694,1.095.1041-.0215.0359-.0447.0707-.0659.1068.0068-.0359.0144-.0718.0212-.1078-1.2498.9872-2.4839,1.9954-3.717,3.0049h0ZM135.5558,77.5364c-.5041.0526-.8884.2901-1.2578.6246.1082-.2784.224-.553.3394-.8278.0251-.0133.0488-.028.0714-.0446.443.0423.8857.084,1.3287.1262-.1599.0412-.3198.0825-.4817.1216ZM134.7994,101.4741c-1.8625-2.5939-2.4038-5.8494-2.6707-8.977.7026-.5843,1.427-1.1631,2.1519-1.7402.0278.6192.0742,1.2365.1398,1.8522-.656.4708-1.3113.9426-1.967,1.4135.0492.2083.0986.4164.1483.6246.6298-.4537,1.2581-.9057,1.8872-1.3575.0823.6374.1865,1.2698.3079,1.8968-.8687.6922-1.4025,1.1082-1.7452,1.3401.0421.173.0856.345.132.5169-.0015-.0054-.0031-.0109-.0046-.0163.011.0403.0216.0807.0325.121-.0063-.0234-.0125-.0468-.0188-.0704.0061.0233.0125.0467.019.0702.5706-.4532,1.1416-.9117,1.7163-1.3645.0818.3818.1624.7639.2583,1.1396-.5596.4236-1.1211.8448-1.6766,1.2733.0598.201.1201.4022.1797.6041.0001,0,.0002-.0002.0004-.0003-.0266-.0907-.0538-.1812-.0801-.2707.0283.0887.0574.1771.0872.2653.5499-.4271,1.1052-.8475,1.6589-1.2702.1357.4892.2817.9717.4409,1.4472-.6601.5192-1.0004.7182-1.5935,1.1821.0754.1889.1517.3774.2283.566.5179-.3984,1.0391-.7911,1.5637-1.1776.1565.4359.3236.8627.4995,1.2836-.5022.4277-.9971.8627-1.5151,1.2746.0104.0268.0208.0535.031.0803-.0764-.0073-.1527-.0147-.2291-.022.1112-.1888.1471-.4254.0182-.6846h-.0004ZM136.0284,101.985c.2329-.1992.4727-.3873.7098-.5784.1503.3365.3116.6616.4742.9863-.5042-.0486-1.0065-.0971-1.511-.1456.1089-.0875.218-.1748.3269-.2623h.0001ZM190.7093,64.3464c-10.6896,5.5127-22.1685,9.2817-32.8132,14.9032.1526-.3598.2994-.722.4661-1.0755,10.9095-5.0428,21.7856-10.1535,32.6711-15.2455-.1016.472-.2073.9448-.324,1.4178h0ZM155.1976,96.7538c.0022.0203.0042.0408.0063.0612.0002,0,.0005-.0002.0006-.0003.015.1329.0297.2657.046.3983,1.3345-.607,2.6674-1.2112,3.9868-1.8253-.0118.0059-.0217.0099-.0337.0159,10.4976-4.7324,21.2339-9.024,31.6504-13.9799.033.1081.066.2236.1428.3062-6.8515,3.3229-13.8505,6.3513-20.8713,9.3147.0178-.0079.0317-.0159.0496-.0199-4.9783,2.1689-9.9707,4.3448-14.8499,6.7618.0266.1934.0546.3865.0839.5798,4.9171-2.4236,9.9606-4.5908,14.9845-6.7994-.004.002-.0081.006-.012.0079,2.9379-1.2792,5.895-2.5137,8.8413-3.7726-7.9153,4.1089-15.8418,8.2037-23.7908,12.2501-.2567-1.7491-.3654-3.5167-.3727-5.2837.0066.1818.0139.3635.0231.5453,8.2126-4.0225,16.6777-7.5439,24.9221-11.5008-8.3484,4.0095-16.6814,8.0516-24.8643,12.3923.0131.1343.0277.2693.042.4041-.0005.0002-.001.0004-.0015.0007.0051.048.0112.0958.0166.1437h.0002ZM156.0897,84.8872c11.2183-4.8302,22.4498-9.6286,33.5938-14.629-.009.1126-.0146.226-.0227.3388-.3936.1718-.7883.344-1.1731.5123-1.5287.5901-3.0548,1.3826-4.5997,2.006.0223-.0087.0339-.0132.0596-.0239-.0139.008-.0317.0139-.0457.0199.0049,0,.0074-.0045.0118-.004-1.7812.7765-3.5587,1.5589-5.354,2.3434.0051.0004.0063-.0038.012-.004-7.7247,3.4109-15.3852,6.9763-22.8135,10.9952.0959-.5215.2141-1.0381.3315-1.5548h0ZM189.5587,73.6525c-6.083,2.6351-12.2032,5.2229-18.314,7.8307,6.1521-2.8441,12.3091-5.6793,18.3208-8.803-.0061.3243-.0103.6479-.0068.9722h0ZM189.6246,75.3413c-1.7532.7712-3.5076,1.5402-5.262,2.3096,1.7446-.8724,3.489-1.7453,5.2354-2.6136.0059.1017.0198.2025.0266.3041h0ZM187.1156,77.082c-10.4458,5.2656-21.1569,10.0323-31.3618,15.7719,10.037-6.0575,20.5744-11.2002,31.3618-15.7719ZM155.5807,87.5693c11.1314-5.8438,22.7207-10.8374,34.0359-16.3162-.0139.2441-.0256.4878-.0349.7324-11.1907,5.8149-22.8284,10.729-34.1206,16.3436.0344-.2541.0803-.5063.1196-.7598ZM155.3723,89.0655c3.067-1.4319,6.1586-2.7812,9.2799-4.1486-.002.002-.006.004-.01.006,8.3096-3.5483,16.6398-7.0486,24.9343-10.6422.001.0356.0017.0713.0029.1069-5.0786,2.5299-10.1514,5.0731-15.1987,7.6644-6.4363,2.8554-12.8499,5.7587-19.1902,8.8163.0459-.6016.1111-1.2024.1818-1.8028ZM155.1561,91.492c3.3975-1.6567,6.8312-3.227,10.2859-4.7574-3.4919,1.8627-6.9473,3.7803-10.3445,5.8197.0142-.3538.0366-.708.0586-1.0623ZM189.9764,78.3008c-.0754-.145-.272-.2184-.417-.1331-11.0861,6.3173-23.0917,10.82-34.499,16.5125-.0012-.2683.0042-.5375.0076-.8066,11.2569-6.3847,23.1598-11.5192,34.6528-17.4359.093.8514.2368,1.6934.4231,2.5262-3.1428,1.5018-6.2859,3.0027-9.427,4.5077,2.728-1.3201,5.4312-2.6892,8.0898-4.1461.2839-.2661,1.3921-.5421,1.1697-1.0247h0ZM189.8773,68.3099c-.0518.4241-.0935.8525-.1345,1.281-11.0944,5.034-22.3121,9.7856-33.5005,14.5991.0193-.0773.0448-.1528.0645-.2299,11.1832-5.5037,22.4671-10.802,33.675-16.259-.033.2032-.0791.4047-.1045.6088h0ZM167.8762,77.6967c-3.7924,1.8148-7.5841,3.6401-11.3553,5.4991.0576-.2062.1118-.4133.1732-.6183,4.6283-2.3963,9.3208-4.6892,13.8733-7.2122,6.4768-3.433,12.8494-7.1041,19.7904-9.5461-.0911.3851-.1746.7709-.2517,1.1584-7.4141,3.5674-14.8065,7.1696-22.2299,10.719h0ZM156.9244,81.8274c.1904-.5865.3904-1.1696.6138-1.7433,6.5771-3.3958,13.3462-6.3778,20.1898-9.1967-6.9155,3.6982-13.8043,7.4119-20.8036,10.94ZM189.9562,65.3477c.1931-.0917.3838-.1891.5774-.2801-.0044.0176-.0081.0354-.0125.053-.1882.0756-.3767.1515-.5649.2271ZM157.5209,78.5715c-.1531.3548-.2748.7217-.416,1.0812-.074.0384-.1489.0751-.2229.1135-.0357.2411-.086.4794-.135.7186.0155-.0081.0313-.0157.0469-.0238-2.2499,6.1581-2.8263,12.9161-1.9841,19.4127-.9184-2.9126-.7649-5.9041-.7854-8.9603.0066-4.005.6912-7.9827,2.1446-11.7204.4522-.2095.9045-.419,1.3568-.6304-.0017.0027-.0031.0062-.0048.0089h0ZM190.6705,80.8631c-5.8246,2.7336-11.6734,5.2609-17.5813,7.8419.0081-.002.0199-.0079.0298-.0119-4.7738,2.0607-9.5751,4.1528-14.3325,6.2668,10.4012-5.3768,20.9424-10.3565,31.4973-15.4022.1121.4398.2439.874.3867,1.3055h0ZM192.7985,60.8373c-.1755-.1225-.3992-.1708-.6082-.1287-.0002-.0007-.0002-.0013-.0002-.002-11.8498,5.5774-23.656,11.2796-35.4666,16.9487.2711-1.1436.2746-1.585-.1361-2.7206,1.7789-.8743,3.556-1.7522,5.3336-2.6307.0276.0905.0526.1818.0802.2722.1943-.0849.4167-.1157.5961-.2245-.0338-.1107-.0649-.2222-.0986-.3329,9.6088-4.7835,19.2573-9.4843,28.8533-14.289.0437.0981.0691.2042.0603.3157,1.0769-.2051,2.7199.2833,2.8484,1.5376-.3018.4644-1.1611.7722-1.4622,1.2541h0ZM165.9991,68.1682c.142.3967.2843.7933.4282,1.1892-.514.257-1.0273.5147-1.5413.7717-.0845-.2764-.1687-.5529-.2524-.8293.2464-.1804.4931-.3566.7393-.535,0,0-.0001,0-.0002,0,.22-.1852.4154-.4006.6265-.5967h-.0001ZM162.199,71.0058c.1944.018.3896.0404.5377.1766.1113-.0876.222-.1755.3324-.2639.0004,0,.0009,0,.0012,0,.0176-.014.0353-.028.0529-.042-.0178-.5873.6377-.9012,1.0347-1.2308.0732.246.1462.4921.2192.7382-.6855.3435-1.3712.6874-2.0571,1.0304-.0409-.136-.0806-.2725-.121-.4086ZM161.3489,70.6756c-.1285.0612-.257.1223-.3853.1834.1837.0214.3676.0454.5515.0665.0757.2594.1517.5184.2289.7773-.5208.2607-1.0415.521-1.562.7827-.2817-.6974-.5571-1.3987-.8276-2.1022.6635.1063,1.3293.1964,1.9945.2922h0ZM184.7975,56.5196c.1526.4214.3049.8428.4575,1.264.1633-.1071.3267-.2144.4897-.3218-.1011-.2737-.1973-.5491-.2966-.8234,1.7108.3086,3.3942.7209,5.1331.6301-7.8904,3.8881-15.7201,7.9016-23.6012,11.8123-.1678-.4593-.3336-.9194-.4991-1.3798.5526-.535,1.1042-1.071,1.6565-1.6066.2805.6548.5608,1.3098.843,1.9645.1689-.1043.3387-.206.5057-.313-.3007-.6927-.6053-1.3856-.9078-2.0791.6033-.5815,1.2006-1.1692,1.7955-1.7593.3446.9296.7057,1.8534,1.0626,2.7787.1783-.0938.357-.1885.5354-.281-.3873-.9868-.7669-1.9689-1.1213-2.9689.4115-.4095.8268-.8152,1.2388-1.2242.3772,1.1103.7888,2.2132,1.2334,3.3032.1814-.1251.3635-.2495.5459-.3734-.4363-1.1348-.8811-2.2708-1.2848-3.4185.3979-.3946.7972-.7878,1.1958-1.1819.431,1.2579.8834,2.5088,1.3551,3.7532.165-.1089.3306-.2176.4961-.3259-.4878-1.2847-.9543-2.5767-1.397-3.8762.5505-.5436,1.099-1.0891,1.6506-1.6314.5637,1.4143,1.1346,2.8253,1.7356,4.2239.1787-.1141.3574-.228.5363-.3419-.6171-1.446-1.202-2.9061-1.7786-4.3695.4474-.4391.8893-.8839,1.3376-1.322.5361,1.4163,1.2587,3.0844,1.9943,4.7045.1799-.1144.3597-.2288.5394-.3433-.7078-1.5969-1.4241-3.1857-2.0739-4.811.3306-.3224.6682-.6377.9993-.9596.0635.151.1918.2655.3474.3156.6154,1.5873,1.208,3.1658,1.8444,4.7421.181-.1159.3623-.2319.5433-.3481-.5613-1.413-1.1209-2.8236-1.6584-4.2457.4878.0969.9766.1869,1.4672.2668.4266,1.0957.8397,2.1942,1.2572,3.2932.1707-.1101.3414-.2206.512-.331-.3674-.9472-.7161-1.8969-1.0618-2.8467.7916.1367,1.5811.2869,2.3718.431h0ZM194.4159,38.4857c-1.3167,2.1965-4.0413,3.9903-5.8284,5.9103-3.7134,3.5947-7.4875,7.1253-11.1473,10.7719.0002.0009.0001.0018.0004.0027-4.8639,4.8053-9.6093,9.7442-14.662,14.3386-1.3616-.1701-2.7203-.3729-4.0726-.6096.0046-.0701-.0056-.1418.0095-.2102-.01-.0258-.0179-.0516-.0278-.0754-.0583.0919-.1304.1744-.2126.2468-5.838-.9845-11.7202-1.6723-17.5459-2.7188.0131-.0161.0176-.0401.0325-.0541-.001-.0028-.0022-.0056-.0032-.0084-.2205-.0298-.4409-.0576-.6633-.0854.0046.0134.0099.0266.0145.04-3.8368-.6306-7.6937-1.1243-11.5526-1.5937-8.1668-1.0841-16.2733-2.5807-24.4688-3.4731-.0049-.014-.0106-.0277-.0154-.0417-.2002-.2153-.4559-.2426-.7407-.2403.0233.0652.0481.1311.072.1967-.6511-.0811-1.3022-.1622-1.9531-.2454-.0088-.0222-.0186-.0439-.0273-.0661-.2104-.0157-.4248-.04-.6355-.0616.0054.0141.0114.028.0168.0421-4.1621-.6781-8.5592-.8698-12.5415-2.2761,3.4041-1.6367,7.3997-1.3321,11.0889-1.6272,3.0041-.0839,6.0844-.1977,9.0895.1293,11.4072,1.7456,22.3947,5.3606,33.7597,7.5691,6.1364,1.4616,12.4864,2.6112,18.8194,2.8212.7904.1924,1.2892-.9378.5002-1.2848,10.2152-9.5138,20.5758-18.8951,30.803-28.3818-.0005,0-.0005,0-.0005,0,.0352-.057.0513-.1226.0698-.1868.8789-.1033,2.1323.2969,1.8223,1.172h0ZM79.12,59.1336c-.7345-1.2583-1.4591-2.5223-2.1819-3.7872.03-.0226.0601-.0454.0901-.0685.8079,1.2933,1.6247,2.5809,2.4432,3.868-.1171-.0037-.2344-.0072-.3514-.0123ZM75.5268,58.7734c-.4222-.6979-.8451-1.4009-1.2736-2.1169.0679-.0474.1304-.1013.1959-.1515.4583.7763.9232,1.5494,1.3922,2.3198-.1049-.0153-.2097-.0353-.3146-.0515h0ZM73.4618,58.3994c-.1849-.3467-.4107-.6975-.6077-1.0521.311-.0987.6139-.2243.901-.3817.3379.5621.6769,1.1239,1.0179,1.6845-.4373-.0762-.8743-.1603-1.3113-.2507h0ZM68.6068,52.4526c-4.184-.9-8.3962-1.6453-12.6416-2.127-6.1016-.4708-12.2089.1779-18.2864.6935-6.7937.5246-13.6262.6049-20.4402.4179,9.9554-.2104,19.8025-1.8251,29.7427-2.1902,4.6309-.1444,9.2532.4855,13.7996,1.3406,4.9326.8524,10.0356,1.3953,14.5826,3.6354.0607.1381.2152.1857.351.1498-.0039.0027-.0076.0054-.0112.0081.0466.0828.0957.1645.1426.2473-.1709.1165-.3398.2357-.5132.3484-.0457-.0796-.0959-.157-.1411-.2369-.1571.1171-.3154.2325-.4758.345.0178.0327.0376.0645.0554.0972-1.9429-1.1338-4.0056-2.0897-6.1643-2.7292h0ZM13.5548,50.0657c19.9583.1822,45.233-5.8706,63.6211,3.5891-.1053.0833-.2129.1637-.3198.2449-.051-.0814-.1022-.1627-.1533-.2441-.1579.1156-.3156.2308-.4734.3458.0533.0852.1067.1703.1599.2556-.0181.013-.0361.0258-.0542.0387-.0496-.0874-.1008-.1739-.1501-.2614-.1018.0741-.2043.1472-.3068.2205.2272-.3136-.4566-.7074-1.294-1.0623-4.6601-1.9113-8.2176-2.3206-12.6812-3.1139-4.9402-.9246-9.9253-1.7399-14.97-1.5707-12.2736.1923-24.6057,3.2666-36.8748,1.7094.0167-.1732.04-.3456.0701-.5174,1.1248.2322,2.2825.2803,3.4265.3657h0ZM76.5388,58.9129c-.4859-.8411-.9876-1.6556-1.4906-2.4935.1387-.0513.2323-.1394.2883-.246.552.9445,1.1338,1.8752,1.7183,2.8036-.1721-.0189-.344-.0426-.516-.0641ZM77.5265,58.6294c-.5165-.8874-1.064-1.7706-1.6019-2.6597.1666-.0693.3448-.167.5304-.2858.6504,1.1409,1.3066,2.2789,1.9691,3.4139-.2137-.0143-.4272-.0334-.6407-.0522-.0854-.1396-.1711-.2753-.2568-.4163h-.0001ZM80.1691,59.1651c-.9042-1.4112-1.7893-2.8345-2.6786-4.2551.2155-.1772.4196-.3501.6016-.5022.9091,1.5978,1.83,3.1754,2.7726,4.747-.2319.0043-.4637.0119-.6956.0103ZM81.5389,59.1407c-.9844-1.699-2.0461-3.3716-2.9873-5.0984.2086-.1394.3831-.3008.5793-.4554,1.0671,1.8484,2.176,3.6744,3.304,5.4926-.2987.0236-.5974.0482-.896.0613h0ZM83.0882,59.0218c-1.174-1.8962-2.3132-3.7894-3.4465-5.7245.2559.0611.5056.138.7542.219,1.0811,1.845,2.2153,3.6615,3.446,5.4111-.2512.0344-.5026.068-.7537.0945h0ZM84.4706,58.8322c-1.0254-1.6532-2.1822-3.2623-3.1492-4.9658,2.2132.6611,2.8511,3.054,4.1104,4.7693-.3184.0728-.6379.1417-.9612.1965ZM86.053,58.4891c-.5934-.9587-1.1899-1.9149-1.7831-2.8727.7278.544,1.4238,1.1341,2.0872,1.7402.2198.1892.4725.1684.6699.0459-.1917.2171-.2063.576-.1864.7955-.0183.0283-.05.0504-.0621.0812-.2413.0723-.4823.1459-.7255.2099ZM191.308,36.5137c-5.666,5.5265-11.5442,10.9285-17.3326,16.3629-.1302-.0668-.2499-.1522-.3456-.2639.0412.1495.1076.2917.1589.4381-3.6847,3.4425-7.3777,6.8763-11.0698,10.3127-.1171-.013-.19.0749-.218.2029-.6111.5674-1.2196,1.1358-1.8264,1.7086-.0092-.4636-.7187-.4094-.6333.0498.0319.1396.0654.2789.0982.4183-.1339-.006-.2672-.0157-.4011-.0226.1281-.2034-.0068-.5011-.25-.5342-8.9422-1.3508-17.8091-3.2414-26.639-5.181-13.5045-3.9637-27.6895-9.0679-41.8612-5.3003-.3285.1659-1.2343.0778-1.2353.5556.0121.1332.1134.2305.2405.2583,13.0992-3.5874,26.6388.0159,39.1841,4.1548,8.8674,2.4275,17.955,4.0842,26.9908,5.7694-10.1741-1.2074-20.0553-3.8328-30.0658-6.1616-5.6716-1.3959-11.3325-2.9504-17.1364-3.7119-4.7075-.4539-9.4595-.174-14.1675.143-1.9767.2613-4.9485.3336-6.8413,1.4881-.2045-.1287-.4875-.1448-.7285.006.1565-.2205.1936-.521-.0452-.7534-2.1094-1.9155-4.6448-3.757-7.5024-4.2997-.1941.0067-.3431-.0043-.5354.0554-1.629-1.4477-3.7701-2.2183-5.7683-3.0485-2.7517-1.1155-5.4727-2.3595-8.3904-2.9868-4.4486-.9807-9.0454-1.0114-13.5818-1.0129-10.3888-.0102-20.7173,1.2458-31.0001,2.6036-3.1267.3968-6.2897.4503-9.4252.1051-.4062-.0338-.5065.6391-.0715.6951,3.5075.5023,7.072.3106,10.571-.1628,10.2754-1.4117,20.5947-2.5879,30.9844-2.538,5.4495.0171,11.0371.1364,16.2031,2.0713,3.3029,1.4568,7.0186,2.3883,9.9371,4.5814-.2806.2085-.5582.4663-.7997.6673-8.7208-4.9098-23.1517-5.8377-33.1161-5.4159.0078-.0007.0159-.0009.0238-.002-6.4335.1223-12.856.7529-19.2793,1.1062-5.0434.2918-10.1236.9567-15.1555.181.2729-1.027.7664-1.9554,1.3101-2.8625,4.425,1.0261,9.0226.8515,13.5225.5525,18.201-1.6107,38.7474-5.6304,54.9849,4.9219.3291.6017.8919-.3979,1.1815-.6346.0934-.0956.236-.2616.3395-.4328.0839.0859.2126.1284.3241.0602,3.069,1.1027,5.5333,3.2599,7.7621,5.5941.1097.1156.2946.1266.4131.0178.1152-.1072.1271-.2999.0159-.415-.3962-.4086-.8066-.8033-1.2163-1.1978.05-.0337.0914-.0828.1077-.1556,8.1436-2.6024,16.9979-1.2464,25.2689.1173,4.9269.8397,9.8378,1.791,14.6322,3.2234,10.1824,2.7852,20.5148,4.9781,30.8828,6.9726.1772.0327.3516-.0827.4089-.2521.0684.0539.1436.0919.2268.1156.0858.1105.2616.1523.3888.0842.4052-.3178.7249-.7527,1.0902-1.1221,9.6489-9.2643,19.0658-18.8026,28.6892-28.1081.3359.2698.6704.5421,1.0039.8157-.1028.0539-.2112.0978-.3057.1658h-.0003ZM12.9081,43.9178c11.8367,1.4039,23.7789.0851,35.6409-.2734,4.498-.0265,9.0737-.4683,13.5903-.0693,6.4119.7655,13.1025,2.5636,18.2566,6.6216-.0034-.0024-.002-.001-.0004.0005-.0995.1903.0576.4098.2578.3966-.2272.0137-.3412.3-.1676.4564-.0767.0672-.1597.1359-.2317.2076-14.1768-10.1157-34.2468-7.2313-50.6205-5.7087-5.85.6488-11.8532,1.2373-17.6756.0294.3333-.5455.6604-1.0944.9502-1.6607ZM157.9895,59.1065c.0162.2968.0502.571.1019.8278-3.6081-.3576-7.1089-1.2868-10.5746-2.358-20.3854-5.9167-42.1427-11.4536-63.3119-6.4996-.2402-.1271-.4609-.2105-.8435-.4237,26.1858-8.8266,49.4734,3.1427,74.6281,8.4535ZM188.8529,34.098c.1353.1543.2874.2963.4602.4211-9.6944,9.1676-18.9839,18.7467-28.7539,27.826-.1221-.2251-.2512-.4532-.3811-.6808,2.3537-2.5615,4.9668-4.8608,7.4419-7.2996,2.7763-2.7366,5.4375-5.5904,8.311-8.2277,4.213-4.113,8.7554-7.8782,12.9219-12.039ZM161.1424,63.6757c-.0605-.2295-.1613-.4833-.2889-.7527.0529-.0412.0946-.0965.1102-.1621,6.8882-6.4406,13.6561-12.9976,20.3177-19.6806,2.7997-2.7749,5.852-5.2843,8.589-8.1225.0581.0448.116.0899.1738.135-9.6682,9.4913-19.2321,19.1031-28.9019,28.5829h0ZM88.4974,54.2521c-.4509-.4269-.9205-.8348-1.4012-1.229,24.6678-4.0137,48.301,7.0705,72.4122,10.209.1273.259.2607.5417.3981.8452-8.1652-1.5791-16.3106-3.2198-24.3883-5.2105-11.2072-2.9708-22.5496-5.9537-34.2095-6.3886-3.0508-.1893-6.122.0164-9.1252.5778-.5337.1581-3.3436.5304-3.686,1.1961h0ZM86.2455,52.2933c14.0107-2.4212,28.4832-.77,42.2815,2.2546,8.9316,2.3114,17.764,5.1624,26.7355,7.3687-6.8158-1.1758-13.4557-2.9889-20.2203-4.4344-15.8709-3.6059-32.193-8.0377-48.5405-4.9402-.095-.0721-.1946-.1376-.2908-.2079.0137-.0117.0232-.0269.0347-.0408h0ZM156.4985,61.4372c-9.3275-2.2886-18.4907-5.1487-27.771-7.5745-14.0381-2.9833-28.9628-4.8105-43.1287-1.9539-.1704-.1135-.342-.2245-.5167-.3314,13.8567-2.9974,28.3928-1.7713,42.1249,1.3557,6.0293,1.2255,11.9573,2.9215,17.8811,4.5797,4.3353,1.2259,8.6461,2.6362,13.1609,3.0205.1509.4666.359.9149.6112,1.4152-.7877-.165-1.5748-.3277-2.3616-.5113h-.0001ZM159.1759,59.3983c-.0209-.2793-.0111-.5561.0056-.833,4.0359-3.6183,8.4537-6.8033,12.2959-10.6276-3.9887,4.0776-8.2519,7.8724-12.1851,12.0047-.0752-.2071-.1196-.3922-.1165-.5441h.0001ZM188.0384,30.9026c.0007.366.001.7322.0168,1.098-3.5922,3.5436-7.4205,6.837-10.9885,10.4045,3.6948-3.7966,7.2986-7.6896,10.9717-11.5026h0ZM188.0489,29.858c-8.0039,8.1109-15.3774,16.9404-24.3213,24.084,3.071-2.7399,6.0736-5.4963,8.8034-8.5699,2.384-2.6145,4.7049-5.557,7.346-8.0111,2.6753-2.7676,5.3557-5.519,8.1855-8.1273-.0063.208-.009.4161-.0137.6242h.0001ZM159.2445,57.734c.0163-.3218.0757-.6427.0964-1.048.894-.2789,1.718-.7008,2.4858-1.2275-.8906.7212-1.7283,1.5084-2.5823,2.2755h.0001ZM184.405,37.3136c-8.4542,7.6497-16.4623,15.7735-24.528,23.8201-.1184-.2114-.2274-.4152-.3258-.6109,6.5659-6.5569,13.2561-12.9708,19.8908-19.4586,2.9072-2.7334,5.944-5.3368,8.7834-8.1416.0527.1776.1064.3553.1865.5205-1.2803,1.3454-2.6582,2.5997-4.007,3.8705h.0001ZM184.0785,26.084c1.3623.4165,2.7405.9372,4.0745,1.479-.1526-.0182-.3152.0117-.4695.1246-3.1255,2.515-5.8055,5.4962-8.5889,8.3687-2.1547,2.0818-4.1146,4.3329-6.0193,6.6429-3.2866,3.8973-6.8958,7.5016-10.7241,10.8648-.7917.6763-1.7087,1.3287-2.6649,1.7822-.5432.3946-1.6472.2658-1.9092.8515-.2672-.0414-.5343-.0829-.8002-.1294,10.546-8.5013,18.2347-19.8314,27.0576-29.9987.0164.0016.0271.0142.0439.0143h.0001ZM155.9684,55.8817c-6.3758-1.2626-12.6569-3.0742-18.8799-4.9537-5.8708-1.7005-11.5373-4.0873-17.486-5.5053-5.1641-1.0311-10.4054-2.039-15.6923-1.9824,11.4065-.7642,22.5955,2.546,33.3683,5.9702,6.2694,1.8518,12.4784,3.9176,18.6502,6.0597-.0385.1251-.0251.2626.0396.4115h.0001ZM184.0348,20.5047c.9448.2123,1.8943.4293,2.8462.6763-10.2564,10.737-18.4287,23.4259-29.7209,33.19-5.7635-2.2273-11.7097-4.0394-17.6393-5.7907-15.3805-4.9152-30.7521-8.829-46.8519-4.7125,20.7866-5.8107,42.1354,2.2729,62.0073,8.0398.7881,1.0361,1.5936-.5524,2.1528-1.0622,2.1262-2.3696,4.2504-4.7368,6.3767-7.1057,6.9569-7.7205,13.8634-15.4859,20.7725-23.2478.0188.0048.0383.0064.0566.0127h0ZM117.9352,11.2496c7.3761-3.6249,15.6719-5.4422,23.8415-5.9604,15.563.0793,29.8304,7.5518,44.8609,10.4983-10.5318,11.5843-21.0541,23.2505-31.5461,34.9067-21.3431-7.3337-49.1163-15.8128-70.4772-4.9489,8.424-9.6655,16.7938-19.4098,25.1918-29.1097.2203.0902.4897-.0446.6228-.2282.4071.1109.7294-.2385.6627-.5249,2.166-1.7104,4.3948-3.3352,6.8436-4.6328h0ZM18.9906,31.8841C31.2996,22.0362,43.5541,12.1193,55.8017,2.1952c.3805.4666,1.3389.1865,1.9257.2096,3.0344-.1381,6.0513-.4323,9.0677-.7745,7.1703-.6757,14.4554-.3144,21.432,1.5848,3.6411.9192,7.3452,1.7447,10.7184,3.4499,3.6844,2.004,6.8209,4.8616,9.7211,7.8901-.8992-.6586-1.8015-1.329-2.7673-1.8672-.1243.1485-.249.2968-.3745.4448,1.2737.7366,2.465,1.6056,3.6564,2.4855-.2516.2878-.5026.576-.7551.8628-1.0765-.9868-2.1674-1.959-3.3036-2.8755-.1262.1481-.2527.2963-.3789.4445,1.1403.9086,2.2354,1.8712,3.311,2.8555-.2993.3418-.5977.6844-.8964,1.0264-1.1622-.8713-2.3004-1.7955-3.524-2.5797-.1292.1516-.2583.3032-.3875.4548,1.2251.7813,2.3964,1.6484,3.5498,2.5393-.2048.2347-.4099.4697-.6147.7044-.0138-.0131-.0193-.03-.0348-.0421-.0547.0712-.1096.1422-.1644.2133-1.0308-.9982-2.0923-1.9688-3.2416-2.8223-.1264.1478-.2524.2959-.3788.4435,1.1621.8547,2.2395,1.8201,3.277,2.8292-.2896.3318-.5794.6636-.869.9955-1.0645-.9727-2.1438-1.9296-3.2866-2.8088-.1289.1474-.2579.2946-.3872.4415,1.1311.8885,2.2261,1.83,3.3011,2.7944-.1593.1829-.319.3652-.4784.5482-1.1146-.9285-2.233-1.8526-3.4587-2.623-.1273.1437-.2549.2874-.3823.431,1.2544.6914,2.342,1.7424,3.4652,2.6226-.3854.442-.771.8834-1.1565,1.325-1.0707-.9794-2.1469-1.9551-3.2826-2.8506-.1318.1489-.2635.2978-.395.447,1.1479.8838,2.2412,1.8392,3.3163,2.8176-.4644.5317-.9279,1.0646-1.3927,1.5955-1.1581-.8845-2.299-1.7804-3.5066-2.5969-.1217.1403-.2434.2806-.3651.4209,1.2207.7696,2.3331,1.7595,3.4979,2.6041-.3939.4492-.7866.8994-1.1799,1.349-.7041-.6526-1.9875-1.8667-3.2214-2.9113-.1315.1519-.2631.3038-.3945.4557,1.1189.9069,2.1975,1.8745,3.2615,2.8608-.283.3235-.5659.647-.8488.9705-1.1425-.8898-2.2761-1.7969-3.4781-2.5981-.1185.1374-.2368.2748-.3552.4123,1.1685.8388,2.2983,1.7599,3.4579,2.6151-.3798.4346-.7601.8688-1.14,1.3034-1.0424-.9919-2.078-1.981-3.1414-2.959-.1294.1511-.2585.3021-.3877.4534,1.0686.9345,2.1195,1.9257,3.1563,2.9319-.4292.4902-.8575.9814-1.2861,1.4721-1.0377-.9785-2.0633-1.9534-3.1455-2.9088-.1245.1459-.2489.2917-.3733.4377,1.0889.9141,2.1263,1.8981,3.1458,2.8981-.2773.3166-.5532.6346-.8306.9512-1.1094-.8856-2.1979-1.8007-3.3184-2.6724-.1223.1435-.2449.2873-.3672.4309,1.0996.9157,2.2129,1.7622,3.3125,2.6688-.4094.4681-.8186.9368-1.2273,1.4058-1.0238-.9766-2.0404-1.9429-3.0828-2.9039-.124.1455-.2483.2913-.3723.4368,1.042.9584,2.0527,1.9235,3.0759,2.9013-.354.4066-.7109.8105-1.0637,1.2182-1.0954-.8762-2.168-1.7745-3.3052-2.6031-.1255.1471-.2507.2938-.3761.4409,1.1278.8268,2.2316,1.6927,3.3197,2.5779-.394.4549-.7903.9089-1.1853,1.3632-1.0728-.8912-2.15-1.774-3.2319-2.6561-.1198.1403-.2399.2807-.3599.4209,1.0872.8705,2.1553,1.7647,3.219,2.664-.3696.4245-.7383.8499-1.1082,1.2744-1.0874-.8669-2.2007-1.702-3.3134-2.5335-.1174.137-.2347.274-.3522.4109,1.1295.8027,2.2128,1.6798,3.2825,2.5631-.313.3593-.6249.7187-.9376,1.0783-1.0676-.9018-2.162-1.6647-3.2914-2.539-.1195.1388-.2386.2776-.358.4163,1.1256.8073,2.2079,1.6823,3.2704,2.5587-.3458.3968-.6899.795-1.0349,1.1926-1.021-.9306-2.0629-1.8394-3.1018-2.7483-.1213.1403-.243.2805-.3645.4208,1.0383.9109,2.0779,1.822,3.0974,2.7532-.2017.2326-.4033.4652-.605.6979-1.1055-.8355-2.2249-1.6521-3.3479-2.4646-.1287.1484-.2573.2969-.386.4454,1.1174.7922,2.2368,1.6153,3.3523,2.4596-.3185.3671-.6361.7338-.9541,1.1019-1.073-.8731-2.1589-1.7303-3.2754-2.5456-.1282.1487-.2562.2978-.384.4467,1.1204.8088,2.2067,1.6656,3.2761,2.5421-.1482.1711-.2964.3415-.4419.5149-.048-.0552-.0974-.1099-.1482-.1648-.0122-.1686-.0854-.3324-.2489-.454-2.7268-2.1515-5.4418-4.0789-8.6242-5.4826-6.3148-2.9446-13.1844-4.8159-20.1192-5.5033-8.5886-.0926-17.1996.3855-25.8308.9335-4.2522.1111-8.6803-.2974-12.962-.4665,1.7917-1.4243,3.5778-2.8588,5.3667-4.2872l-.0002-.0003ZM14.7582,38.369c.1941-.2737.6145-.5751.8827-.9028,4.8301.3137,9.6764.7452,14.5078.2898,4.2196-.3749,8.3524-.2638,12.6403-.4171,4.3732-.0818,8.8486-.4534,13.1766.4091,4.7369.9033,10.4541,2.3624,15.5175,4.6877-5.3384-1.2316-10.8361-1.6943-16.2827-2.2018-11.8523-1.1417-23.762-.3184-35.6016.5543-2.4598.0801-4.8661-.0634-7.33-.1636.7958-.7823,1.707-1.4568,2.4894-2.2556ZM21.7257,41.8445c12.1611-1.0073,24.426-1.2805,36.5798.0353,7.6676,1.0842,17.119,1.0124,22.6491,7.2431.3167.2119.8057.3143,1.0383-.0553,1.162-1.0887,2.9056-1.5014,4.3595-2.1556.3273.234.5721-.0077.8601-.1169,6.0487-1.4806,12.239-2.2844,18.4788-2.1904,4.6511.2488,9.307,1.0745,13.8735,2.0276,5.1306,1.2253,10.0688,3.3235,15.1327,4.8118,7.684,2.3881,15.3751,4.8701,23.3551,6.087-.0366.326-.0635.6329-.0725.9091-22.173-4.6509-44.2747-15.2242-67.3421-10.242-.6821.1533-6.5903,1.2089-7.9336,2.1325-.3904-.1706-.76-.2782-.9816-.1849-.3193-.4212-.6313.1872-.8695.5131-.0408-.0372-.0906-.0624-.1472-.0679.0857-.0065.1718-.0276.2397-.071.4153-.421-.3018-.853-.5916-1.118-7.2503-5.2822-16.6338-7.0415-25.4656-6.6051.0151,0,.0294,0,.0437,0-13.8881.0678-27.854,1.9755-41.7272.4976.1534-.3937.3666-1.0062.3051-1.4723,2.738.1308,5.4785.2454,8.2153.0225l.0002-.0002ZM44.9426,51.7516c-11.6683.2304-23.5646,3.2235-35.0801.1718.1077-.1011.1808-.2302.2047-.3761,8.7364.9723,17.6315.8749,26.4062.3577,7.6112-.5907,15.2781-1.5604,22.8862-.3537-4.8046.0581-9.6155.0193-14.4171.2003h0ZM72.2633,57.4733c.1447.2507.2899.5015.4385.7504-.53-.1825-1.1296-.4827-1.433.1129-.129.2959.004.6871.3158.8083,1.2971.4316,2.6475.6831,4.0081.8616.0945.2569.411.3059.5505.0687.5686.0658,1.1361.1235,1.7039.1709.0503.0814.1021.1625.1521.244.2104-.0219.423-.0437.6335-.0675-.0247-.0392-.0487-.0793-.0732-.1186.1917.0112.3835.0186.5756.0264.0074.0128.0148.0258.0223.0386,2.897.0734,5.8065-.2672,8.5515-1.1136.2661.147.5707.2696.8933.3724.1741.4783.4695,1.0327.7173,1.4862-5.534,2.898-12.7675,2.8991-18.2163-.1551-.2702-.1944-.5628-.4009-.6992-.7174-.1191-.0239-.2383-.0477-.3574-.0715.0403.0638.0813.127.1216.1907-.9894-.6906-1.876-1.4221-2.6283-2.4208,1.587-.0554,3.1672-.1811,4.7235-.4667h-.0001ZM9.6512,61.2442c1.6385-.4154,3.2383-1.0654,4.9745-1.3121.4008.5267.8077,1.049,1.2059,1.5776.2224-.004.4451-.0069.6674-.0089-.373-.5857-.8505-1.1152-1.257-1.6822.2256-.0406.4504-.0814.6755-.1207.4567.6071.9288,1.2048,1.4055,1.799.2466.0005.493.0023.7395.0053-.499-.6388-1.0059-1.2738-1.5015-1.9164.3091-.0536.6152-.1083.9205-.1634.4984.7161,1.0364,1.4115,1.5851,2.0998.2473.0064.4947.0143.7419.023-.577-.7384-1.1418-1.4854-1.6895-2.2428.469-.0783.7857-.1729,1.2916-.2663.5616.8512,1.1195,1.7049,1.6952,2.5472.24.006.4797.0114.7195.0161-.6064-.8909-1.2114-1.7817-1.8073-2.6788.212-.0442.4242-.0961.6223-.1599.7277,1.016,1.3547,1.8714,2.0883,2.8538.2427.0027.4856.0046.7285.0056-.7356-.9824-1.4723-1.9652-2.1885-2.9628.4592-.009.9172-.0261,1.376-.0373.6691.9906,1.3615,1.9632,2.0491,2.9417.23-.0117.4597-.0231.6893-.0342-.6957-.9655-1.3817-1.9383-2.0402-2.9264.4995-.0136.9998-.0231,1.4988-.0406.6589.9706,1.3186,1.9409,1.9878,2.9042.2288-.0096.4585-.016.6877-.0259-.6689-.962-1.3325-1.9284-1.9937-2.8967.422-.0109.8443-.0255,1.2665-.0377.6712.9856,1.3614,1.9447,2.0135,2.9302.2332-.0129.4663-.0226.6992-.0291-.6909-.9595-1.3726-1.9255-1.991-2.9228.8896-.0262,1.7793-.0523,2.6692-.0801.6815,1.0815,1.2599,1.9936,1.9426,3.0414.2427.0125.4851.027.7279.0433-.6925-1.0248-1.3905-2.0488-2.0276-3.1039.5146-.0161,1.0293-.0292,1.5441-.0452.7379,1.1263,1.5378,2.2163,2.3682,3.2866.2677.0199.5354.0399.8032.0601-.8547-1.1095-1.7317-2.2115-2.5203-3.3653.7944-.0242,1.589-.0463,2.3835-.0684.6779,1.2255,1.4582,2.3894,2.1954,3.5869.2407.0181.4816.0362.7225.0541-.7816-1.2025-1.5469-2.4147-2.2535-3.6601.609-.0164,1.2181-.0322,1.8273-.0463.8269,1.3865,1.4794,2.505,2.3041,3.8436.2352.0166.4701.0329.7054.049-.8049-1.2884-1.6047-2.5812-2.3511-3.9032.5334-.0115,1.0669-.0167,1.6003-.0258.7379,1.3596,1.5099,2.6996,2.3013,4.0287.2382.0144.4768.0283.7151.0416-.8304-1.3426-1.6577-2.6908-2.3767-4.0806.6055-.0092,1.2109-.0239,1.8164-.0292.7876,1.4166,1.6014,2.8153,2.4363,4.2018.231.0095.4623.0183.6934.0264-.0606-.1001-.1224-.1997-.1821-.3,0,.002.0021.004.004.0079-.7882-1.3049-1.5741-2.6128-2.3276-3.9463.9432-.006,1.8864.0142,2.8295.0202.7175,1.4563,1.5081,2.8774,2.3278,4.2832.2413.0048.4828.0101.724.016-.8279-1.4186-1.6804-2.8254-2.4133-4.2943.7101.0068,1.4202.0012,2.1304.0164.7947,1.4487,1.5419,2.9005,2.3367,4.3459.2327.0099.4653.0207.698.0322-.79-1.4561-1.6401-2.8894-2.3672-4.3725,5.4123.0916,10.8117-.1099,16.2249-.1656.1636.272.3299.5444.4958.8187-.0884-.2203-.1277-.4644-.0724-.6966.0253.0145.0439.0342.0731.0454.3502.5305.7388,1.0261,1.1582,1.4896-.348-.0364-.6719-.2055-.9208-.442.7032,1.1593,1.4191,2.3118,2.1357,3.4688.1967-.0892.4193-.1155.6388-.0775-.6161-.9745-1.2339-1.9487-1.8376-2.93,1.2239,1.347,2.7219,2.4071,4.364,3.2016.46.7229.9143,1.4501,1.3806,2.1686.275.0756.5504.1487.8264.2205-.4244-.6512-.8381-1.3097-1.257-1.9645.8905.364,1.8141.6537,2.7545.8708.3022.5264.6038,1.0532.9225,1.5711.2366.0167.4741.0344.712.0435-.3037-.4823-.5964-.9704-.8875-1.4593,1.0199.1926,2.0511.3031,3.074.3304.1509.3379.3409.7148.5619,1.1167.2232-.0038.4467-.0065.67-.0117-.2-.3604-.387-.7275-.5654-1.0989,1.0541.0196,2.1097-.0334,3.1592-.1554.1613.3436.3403.7064.5332,1.0807.2114-.0226.4229-.0469.6343-.0722-.1779-.3541-.3296-.72-.496-1.0795.3878-.0571.7694-.147,1.1533-.2253.1862.3842.3729.7681.5646,1.1497.2024-.0266.4048-.0535.6072-.0801-.1976-.3917-.3704-.793-.5551-1.19.5914-.1396,1.1722-.3157,1.7484-.5093.2305.4874.4578.9763.7061,1.4547.165-.0214.3301-.0442.4951-.0661.0068-.0498.0168-.0981.0298-.1447-.2482-.4625-.4817-.9326-.7062-1.4076.3907-.184,1.3456-.5424,2.1786-.9937.2937.5453.5876,1.0907.8838,1.6343.1285.0059.2553.0119.3838.0201.0709-.0451.1466-.0815.2258-.1094-.3291-.6125-.6407-1.2316-.9969-1.8365.7343-.476,1.2104-1.0247.7747-1.5715-.1769-.2461-.8076-.2821-.9418-.0366-.1816.1136-.34.2407-.5308.3338-.1692-.3305-.3229-.6669-.4587-1.0099,1.1542.2593,1.8818.4082,2.9324.5845.6582,1.3125,1.3179,2.6249,1.988,3.9319.2334.0395.4664.0828.6985.1288-.6765-1.3055-1.3406-2.6175-1.9905-3.9368.9019.1582,1.8047.3116,2.71.4492.6234,1.2151,1.2309,2.4436,1.8331,3.6697.2272.0465.4567.0797.6849.1201-.6202-1.2257-1.2346-2.4543-1.8348-3.689.7205.1061,1.4403.2166,2.162.3145.654,1.2397,1.2318,2.4964,1.8459,3.7464.2354.0427.4705.087.7054.1326-.6256-1.2628-1.2491-2.5253-1.8685-3.7898.7642.1016,1.5283.2023,2.293.2997.5244,1.3087,1.0642,2.613,1.6218,3.9125.231.0495.4615.099.6921.149-.5657-1.3201-1.1088-2.6475-1.6497-3.9754.6371.0807,1.2737.1627,1.9106.2438.7066,1.7974,1.0116,2.5756,1.6802,4.1634.2207.0497.4417.0996.6624.1493-.5947-1.3959-1.1523-2.806-1.6746-4.2274.5755.073,1.1507.1464,1.7258.2205.6922,1.4941,1.3703,2.9835,2.0725,4.4736.2417.0511.4835.1013.7257.1504-.7166-1.5085-1.3764-3.0343-2.1113-4.5361.6075.077,1.2155.1517,1.8223.233.654,1.5332,1.2202,3.0686,1.8577,4.6024.2229.0415.4479.0688.672.1017-.6345-1.5343-1.2335-3.0772-1.863-4.6144.8715.1189,1.7422.2428,2.6128.3685.6076,1.5494,1.2824,3.0637,1.9448,4.5996.2297.0291.46.0581.6897.0873-.667-1.5226-1.3975-3.0434-2.0144-4.5995.8702.127,1.7399.2585,2.6096.3898.6407,1.4895,1.2891,2.9744,1.9513,4.455.219.017.4379.0345.6569.0524-.6605-1.4626-1.3053-2.9323-1.9358-4.4068.5747.0873,1.1493.1749,1.7239.2631.6872,1.4439,1.3169,2.8695,2.002,4.3003.2204.0268.4406.0296.6621.0193-.6793-1.3987-1.2948-2.8013-1.9694-4.2129.9907.1525,1.9816.3037,2.9724.4559.4058,1.2332.8129,2.4659,1.2543,3.6859.2458-.0067.4768.0723.6675.208.0198.0009.0396.0018.0593.0026-.4602-1.256-.8881-2.5248-1.3136-3.7944.4618.0707.9235.142,1.3854.212.428,1.2216.8564,2.4431,1.3081,3.6564.2084.0112.4171.023.6255.0357-.4688-1.192-.9131-2.3926-1.3263-3.6008.5468.0824,1.0939.1616,1.6409.2424.3671,1.0867.8158,2.2654,1.296,3.4489.2305.012.4608.0258.6892.0378-.4758-1.1094-.8576-2.246-1.2784-3.3822.7661.1119,1.5328.2198,2.2997.327.3809,1.0599.762,2.1195,1.1494,3.1785.2124.0119.4229.0238.6355.0358-.3936-1.0383-.7714-2.0821-1.1472-3.1265.3765.0518.7528.1053,1.1296.1556.4075,1.0156.8188,2.0297,1.2355,3.0423.226.0134.4519.0266.6779.0402-.4093-.9959-.8259-1.9887-1.2246-2.9886.78.1022,1.5618.1946,2.343.2889.3162.947.6345,1.894.9546,2.8406.2264.0197.4529.0401.6792.0596-.3247-.9342-.6223-1.8759-.9368-2.8142.4279.0486.8538.1111,1.2792.1776.3527.9155.7005,1.8298,1.0156,2.7495.2266.0197.4528.0408.6788.0647-.3408-.9061-.698-1.8088-1.0408-2.7157.8485.1253,1.6973.2487,2.5432.389.2518.8558.5012,1.7123.7631,2.5652.1947.0208.3895.0416.5842.0626-.2625-.8373-.4987-1.6814-.7406-2.524.458.0773.9158.1558,1.3735.235.3577.9394.7114,1.8149.9536,2.463.2066.0201.4114.0442.6176.0635-.3063-.8038-.621-1.6001-.9021-2.4121.7157.1246,1.4323.2434,2.1481.3669.3071.7353.6146,1.4702.9287,2.202.2938.0278.5659.143.7844.3198-.3468-.7993-.6886-1.6017-1.0286-2.4048.9758.1664,1.9539.3199,2.9324.4702.302.8276.6042,1.6552.9082,2.4827.2065.0278.4131.0556.6196.0834-.3103-.8231-.6091-1.6482-.9072-2.4734.9616.1523,1.9264.2818,2.8889.4269.2844.8103.5673,1.6218.8524,2.4305.2224.0298.4448.0576.6693.0854-.2871-.8071-.568-1.6135-.85-2.418.7328.1093,1.4662.2166,2.1973.3365.2366.7503.4723,1.501.714,2.2493.208.0123.4181.0236.6274.0395-.238-.7243-.4629-1.4525-.6897-2.1801.6646.1108,1.3293.2195,1.9934.3324.2986.837.5972,1.674.9043,2.5083.2223.0131.4446.027.667.0423-.2979-.8098-.5869-1.6226-.8763-2.4352.5721.0969,1.1447.1915,1.7173.2852.2854.7648.5667,1.5312.8669,2.2903.1359.012.2717.0241.4076.0362-1.2915.6491-2.5814,1.3005-3.8733,1.9495-15.8633-1.4514-31.7374-2.8367-47.6034-4.2635-.0194.2463-.2995.4297-.5363.3594-.3191.147-.7428.1814-1.0068-.0834-.0473.0236-.0983.0452-.1523.0547.0525.0561.092.1263.1135.2,16.0654,1.4319,32.1304,2.9026,48.1976,4.3093-.0996.1755.0501.3994.2445.3912.2418-.0442.454-.2105.6821-.3033.3433.8105.3242,1.7775.0211,2.6299-.1312-.1301-.3023-.2084-.4919-.2091.0022.0002.0043.0005.0063.0009-.0803-.0091-.1532-.013-.2351-.0228-.6376-.0609-1.2945-.118-1.986-.1847-19.0278-1.7616-38.0691-3.4563-57.1021-5.1987.0013-.03.0028-.0601.0042-.0901-.1926-.0159-.3872-.0298-.5798-.0457-.0012.0276-.0026.0552-.0038.0828-16.4174-1.5048-32.8363-2.9917-49.255-4.4891-.2304.2106-.5552.3295-.8828.3096-3.711-.2917-7.4125-.748-11.0814-1.3822-7.0465-.6868-14.1045-1.283-21.1561-1.9446-.0443-.3338-.4545-.31-.6089-.0558-1.7145-.1604-3.4329-.3146-5.1477-.4703.04-.4205.0764-.8411.1189-1.2615.065.0052.1297.0104.1946.0159-.0282-.342.0865-.7025.2939-.9774,9.4528.8785,18.9077,1.7109,28.3611,2.5765-.0438-.206.0467-.4188.0645-.6257-9.2511-.816-18.5057-1.637-27.7566-2.4521.2656-.1042.5618-.1575.8506-.1739l.0005.0003ZM3.4093,95.2072c.1937-.1377.394-.267.594-.3969.1064.0437.2259.0384.3398.056.2751-.1656.5481-.3305.8248-.4919.0171-.0428.038-.084.0586-.1255,11.4177,1.0364,22.8367,2.076,34.2552,3.108,3.7832.343,7.569.6863,11.3516,1.0227.1884.0094.3706.0472.558.0437.2921-.0199.3486-.4639.0573-.5417,0-.0009.0002-.0016.0002-.0024-15.1735-1.4305-30.3588-2.7939-45.5374-4.1924.0935-.0526.1903-.1005.2871-.1449-.0232-.0021-.0465-.0042-.0697-.0062,1.2206-.7026,2.4252-1.4288,3.4576-2.3821,47.6573,4.8117,95.333,9.4058,142.9847,14.2717-.1461.0915-.2904.1857-.4259.2732.6802-.0163,1.3762-.3335,2.0515-.1802-.803.5174-1.6257.9761-2.4746,1.4496-.009-.0009-.0175-.0038-.0269-.0038-3.7509-.3962-7.5401-.6901-11.3044-1.057.0312.2404-.0553.4823-.08.7227,3.766.3221,7.533.7493,11.2971,1.0393.0272.0089.057.0059.0853.0062.1803.8668-.0796,1.6955-.592,2.4055-.0569.0191-.1143.028-.1748.0156.006.002.012.004.0178.006-.1864-.0145-.3832.0122-.54-.1053-.116.1541-.249.3124-.3339.4739-32.5722-2.8157-65.1446-5.6189-97.7203-8.3996-11.9985-1.0116-23.992-2.0644-35.9949-3.0285-3.504-.3433-7.0658-.4587-10.5424-.8953-.7778-.0874-1.6411-.2265-2.1686-.86-.0637-.0877-.1496-.1463-.2424-.1905-.3843-.5982-.7271-1.4717.0073-1.8898h.0003ZM150.2086,114.0928c.1656.2774.4481.0736.6611-.0278,3.8145-1.8965,7.6216-3.8088,11.433-5.7115,8.5254-4.2669,17.0524-8.5338,25.5902-12.777.0296-.2492.0345-.4988.04-.7495-12.4035,6.2668-24.842,12.459-37.2532,18.709.011-.2189.0228-.4371.0393-.6566-48.0019-4.0889-96.0041-8.1688-144.0171-12.1235-.0475-.4346-.1085-.8683-.175-1.3017,32.3118,3.0274,64.6787,5.7348,97.0102,8.5848,12.2305,1.0658,24.4608,2.1245,36.6918,3.1834,3.4978.305,6.9947.6097,10.4918.9092.4129.0907.8981-.0312,1.0603-.4681,12.0789-6.0612,24.1351-12.1793,36.1719-18.3256.2188,1.8788-.002,3.7621-.2061,5.6525.0005-.0838.0002-.1675.001-.2513-12.4421,6.535-24.9278,12.9874-37.3829,19.4974.0046-.0902.0087-.1801.0148-.2713-47.8291-4.461-95.6602-8.9174-143.4966-13.2977.0071-.6855-.0048-1.3699-.0389-2.0528,47.8193,4.5243,95.6432,8.9958,143.4722,13.4142.0361.1252.1616.2137.2929.1934,1.8225-.8365,3.5973-1.811,5.4036-2.6968,10.591-5.3449,21.1714-10.7091,31.7717-16.036.0093-.2449.0193-.4897.0313-.7344-12.3945,6.3108-24.8192,12.5607-37.2196,18.8593.0126-.1198.0219-.2402.0381-.3599-47.9374-4.458-95.8744-8.8655-143.8212-13.2208-.0159-.2325-.0396-.4645-.0605-.6967,47.888,4.2043,95.7892,8.2526,143.6887,12.3191-.1849.0602-.34.2422-.2327.4366h0ZM7.1025,112.7244c47.5054,4.6397,95.0098,9.2662,142.5206,13.8506-.2955.1769-.0332.6548.2779.4766,3.0388-1.7472,6.052-3.5331,9.0797-5.2964,9.4796-5.5288,18.9382-11.0905,28.4191-16.6157.0005.6564.0173,1.3146.0374,1.9726-12.535,7.259-25.0986,14.4685-37.6381,21.72.1547-.1837.0701-.4922-.1491-.5765-.0974-.0397-.2085-.0378-.3137-.0477-1.9047-.1697-3.804-.3671-5.7076-.5441-11.9044-1.1312-23.8081-2.257-35.7108-3.392-33.598-3.2113-67.2044-6.3513-100.8115-9.4677.0161-.6928.0107-1.3862-.0038-2.0798h0ZM3.4025,122.8174c-.2114-.7626.3082-1.4244.9568-1.8474.1182.3171.4553.3645.7542.3771,3.6699.3665,7.341.7101,11.0139,1.0566,4.8455.4494,9.7167.9211,14.6343,1.3802,14.9766,1.4043,30.0015,2.8866,45.0188,4.2896,2.029.1865,4.1199.3839,6.1682.5719h.0002c15.0726,1.4289,30.1794,2.8317,45.3323,4.2598,6.7292.627,13.5724,1.2892,20.3237,1.9088.0111.001.0269.0025.0398.0037-.0384-.0043-.0633-.0057-.0992-.0099.0411.0031.0822.0075.1232.0112,0-.0003.0222.0019.0317.0026-.001,0-.0017-.0001-.0024-.0002.7587.0331,1.5084.2001,2.2412.205.3445.8411.6318,1.7726.408,2.684-.0922.3101-.2635.7208-.1518,1.0156-.004.0013-.0082.002-.0121.0033-.1211-.1416-.2857-.2448-.4764-.262,0-.0005.0001-.001.0002-.0014-.0459-.0036-.0921-.008-.1383-.0127-38.7929-3.827-77.5653-7.5251-116.3945-11.2908-2.0325-.1936-4.0896-.3912-6.1373-.5842l.0022.0002c-4.2087-.4069-8.4006-.7962-12.6246-1.1937-.8218-.0787-1.7272-.1645-2.6035-.2462-2.6828-.4147-6.5168.0408-8.4085-2.321h0ZM18.6174,133.9332c.2235-1.0076.6312-2.1414,1.0208-3.1457.0555-.1714.1252-.3675.0274-.5321.9294.0916,1.8586.184,2.7881.2757-3.2413,6.185-2.8176,19.7003,1.1147,25.525-.7939-.0771-1.5874-.1589-2.3816-.2354-1.6269-1.9058-2.3856-4.4383-2.7711-6.8988-.5773-3.5073-.8604-7.0748-.4596-10.6219-.0013.02-.0042.0387-.0057.0576.1547-1.486.3627-2.9622.667-4.4246v.0002ZM132.5321,141.3878c1.0715.105,2.1433.2103,3.2148.3152-5.6189,6.4758-3.7422,18.3862-.1583,25.6763-.9822-.0993-1.9642-.1987-2.9464-.2991-1.1838-1.7865-1.7847-3.8954-2.2869-5.9581-1.5893-7.0767-1.479-13.3077,2.1768-19.7343h0ZM157.6969,160.6591c-.1401.0947-.2811.1884-.4215.2829-.1713-.0554-.3671-.0497-.5692.0565-.8002.4609-1.5645.9819-2.3083,1.532-.0468-.4024-.0944-.8058-.1418-1.209,2.9818-2.0682,6.0298-4.0422,9.0966-5.9812h-.002c6.2994-3.897,12.7383-7.5964,19.1713-11.3078-8.2797,5.5357-16.5574,11.0719-24.825,16.6266h-.0001ZM191.8141,137.8545c-12.543,7.5831-25.5693,14.4497-37.634,22.8207-.0745-.6334-.146-1.2679-.2169-1.9027,11.8973-7.8918,24.5327-14.5612,36.9662-21.5439.2136.2277.5007.4361.8848.6259h0ZM190.5804,136.7231c-12.3031,7.0037-24.8889,13.5584-36.6881,21.4232-.0739-.6835-.1415-1.3677-.2037-2.0523,5.8572-3.6161,11.7773-7.1296,17.7256-10.6044-.0045.003-.009.0061-.0126.0085,2.3756-1.3743,4.7511-2.7444,7.1249-4.1226-.0017.0012-.0034.0025-.0054.0038,3.9556-2.2859,7.9207-4.5433,11.8457-6.8807-.0437.8649-.084,1.604.2136,2.2245h0ZM190.3995,133.4819c.0002.0797-.002.1567-.0034.2347-12.1943,7.3288-24.6935,14.1403-36.7629,21.7082-.0327-.3918-.0608-.7837-.0876-1.1756,4.8159-3.1213,9.643-6.1208,14.5635-9.0773h-.002c.006-.004.0139-.0079.022-.0119-.01.0059-.0139.0079-.02.0139,4.2202-2.5142,8.4661-5.0184,12.708-7.5068-.002.002-.006.004-.01.0079,3.2444-1.8793,6.4514-3.8268,9.644-5.8013-.0168.5361-.0349,1.0728-.0515,1.6082h-.0001ZM153.6166,146.2801c3.3923-2.2822,6.988-4.3712,10.4374-6.5264-.0013.0012-.0024.0022-.0035.0033,8.7874-5.2536,17.7814-10.1382,26.7546-15.0591-.0073.0952-.0127.1906-.0195.2857-8.1232,4.6565-16.2811,9.2635-24.3782,13.9492.0081-.006.0199-.0119.0319-.0219-1.8131,1.0605-3.6322,2.121-5.4415,3.1834.0042-.002.0081-.0059.012-.0079-2.4907,1.4744-4.9685,2.9706-7.4316,4.4911.0098-.0992.0278-.1981.0386-.2974h-.0002ZM153.5238,147.3119c2.5704-1.5986,5.1494-3.2089,7.759-4.7114-.0004.0001-.0007.0002-.0011.0002.0006-.0004.0021-.0012.0026-.0015-.0002.0003-.0007.0007-.0012.001.001-.0005.0017-.001.0027-.0015-.0005,0-.0007.0001-.001.0002,9.76-5.7306,19.6323-11.272,29.4519-16.9045-.0229.3439-.0513.6872-.0708,1.0314-12.3871,7.6706-25.2922,14.5396-37.2507,22.9076.0132-.7745.0493-1.5484.1086-2.3215h0ZM153.4108,150.3277c5.6552-4.0304,11.6904-7.5576,17.5583-11.2261-.0118.0079-.0198.0119-.0317.0219,6.5129-3.975,13.2632-7.564,19.6877-11.6799-.0339.6616-.0603,1.3237-.0859,1.9858-8.3301,5.0302-16.9177,9.671-25.302,14.6247v-.002c-3.9668,2.3457-7.9236,4.7076-11.8318,7.1537-.0049-.2928.005-.5854.0054-.8781h0ZM159.3132,148.2463c-.005.0037-.0076.0058-.0099.0074,10.2798-6.245,20.8889-11.9222,31.2043-18.1002-.0117.3325-.0225.6644-.0334.9967-1.8333,1.1421-3.6648,2.2828-5.5266,3.3989.0005-.0004.0007-.0008.0012-.0012-1.4839.8729-2.9679,1.7438-4.4476,2.6206.0118-.0099.0219-.0139.0338-.0219-1.9602,1.1519-3.9203,2.3017-5.8765,3.4575.01-.0079.02-.0119.0319-.0198-2.2738,1.3524-4.5656,2.7068-6.8414,4.0632.0057-.0016-.0122.0072-.0179.0119l.0021-.002c.0017-.0018.0033-.0021.0037-.0035-2.1892,1.3317-4.3921,2.6674-6.599,4.0091.0021,0,.006-.002.0079-.004-.002,0,0,0,.004-.002-2.5985,1.6224-5.1908,3.2634-7.7521,4.9503-.0341-.574-.0518-1.1481-.0691-1.7222,1.9668-1.2168,3.9492-2.408,5.8846-3.6389h0ZM163.7425,139.2764s0-.0004.0002-.0009c-1.4503.8806-2.8954,1.7628-4.3435,2.6462-1.9,1.187-3.8044,2.4056-5.6899,3.6427.0493-.3825.0848-.7656.1486-1.1474.0372-.16-.0511-.332-.2224-.3594-.1449-.0258-.3019.0775-.3217.2264-.5942,3.1926-.5894,6.4644-.3887,9.6951-.0125.0082-.0251.0162-.0376.0244.0205.2094.0409.4188.0615.6281.0066-.0043.0134-.0085.02-.0129.2278,2.7717.4716,5.5782.8994,8.3145-.4241.3255-.844.6562-1.2578.9926-.9266-3.4289-1.2647-7.0394-1.2532-10.6484.2301-.4957.0112-1.1444.0628-1.6874.2744-2.2315.069-4.4876.6479-6.6734,1.6979-1.0682,3.4277-2.0816,5.1155-3.168.1349-.09.2159-.2305.248-.3816,11.2366-6.5197,22.462-13.062,33.665-19.6431-.0894.7618-.1797,1.5235-.2449,2.2885-9.0942,4.9861-18.2043,9.939-27.1094,15.2642l.0002-.0002ZM193.8998,118.4424c-.0252.0146-.0524.0316-.0793.0457-.0022,0-.0022.002-.0042.002-13.3486,7.7843-26.6678,15.7312-39.9651,23.6176-.263-.0932-.5533.1263-.6326.3767-.1268.0753-.2532.1515-.3801.2267-.231-.0154-.4731.1138-.5691.3394-.326.2174-.6926.37-1.0012.6031-.0005.0107-.0049.0205-.0055.0312-1.0835,2.1117-1.1166,4.6195-1.1599,6.9481-.3941,4.9903.1342,10.52,1.4698,14.4033-.0873.3999.3413.7703.7246.6234v.004c13.5995-8.8277,27.1466-17.7794,40.6206-26.8098,1.05.0172,1.9529,1.1623,1.4248,2.1679-.4092,1.0391-1.126,1.8171-1.9356,2.5505-.4131-.0562-.7985.2585-1.0928.5106-3.3968,2.3032-6.8052,4.5918-10.2206,6.8661-9.2918,6.2118-18.6279,12.3609-27.9352,18.5514-.3186-.5428-1.08-.402-1.6157-.4905-4.7322-.4933-9.4689-.9718-14.204-1.4528-3.4699-7.57-5.9212-17.3866-.9533-24.8891.2933-.2081.3124-.6767.0171-.9006,4.3667.4133,8.7433.8864,13.1061,1.2657.4157-.0123.8778.1931,1.265.0199.1987-.1386.1979-.4523.0054-.5933,2.9447-1.7143,5.8868-3.4336,8.8302-5.1502-.1774-.1214-.2274-.3551-.171-.5626-3.1699,1.8509-6.3319,3.7057-9.5015,5.5591-17.0006-1.7094-34.0145-3.3146-51.0198-4.9856-.0081.2253-.0261.4508-.0532.6725,0-.002.002-.004.002-.006-.0044.0172-.005.0393-.0078.0576.002-.0139.0039-.0258.0059-.0397-.0029.0242-.0059.0488-.009.0734,10.8265,1.0658,21.6565,2.1311,32.4839,3.1927-2.5933,4.2783-3.7834,9.2734-3.2631,14.263.3666,3.6265.7772,8.0647,2.6556,11.3524-35.0881-3.5463-70.1699-7.1605-105.2654-10.6425-.0835-.4275-.5381-.6077-.7733-.944-2.3957-3.4548-2.7029-7.7912-3.0219-11.9061-.1149-4.0232-.0608-8.2819,1.6286-12.0248.1088-.1518.2909-.5149.1751-.7367,15.2754,1.5159,30.5547,3.0239,45.8295,4.5359-.0027-.0152.0012-.0309,0-.0463.1299.0138.2582.039.3881.0712.5212.159.7036-.6078.1271-.5847.1453-.031.2908-.0587.4379-.0701-16.7507-1.6237-33.5032-3.2279-50.2545-4.8475-4.8558-.4731-9.7126-.9361-14.5686-1.408-.4112.0402-1.2928-.3725-1.3843.1727-.0019.159.1231.2722.2762.2841.7228.0655,1.4755.145,2.2301.2204,4.0404.3994,8.0813.7997,12.1229,1.1982-2.9293,6.5853-3.0922,19.2392.7006,25.4883-3.8654-.3688-7.732-.7515-11.6014-1.0801-.2323-.3697-.8384-.3932-1.26-.4888-.3868-.1234-.7842-.2172-1.1829-.3069.0052.0834.01.1662.0151.2495-.3658-.0831-.7327-.1735-1.0977-.2622-.0712-.3986-.5524-.6785-.9404-.5765-1.4365-2.7113-1.3989-6.0858-1.6476-9.1083-.142-5.2262-.0733-10.4862,1.3379-15.5896.337-1.173,1.3534-1.1846,2.6486-1.9703.2826-.1834.2833-.5883.0901-.8345.6479.1174,1.3979.2884,2.0027.4356.2218.0343.394-.0343.5179-.1504,32.8941,3.3834,65.8082,6.5863,98.7102,9.8987,11.4958,1.1361,22.9912,2.2646,34.4856,3.3998,2.6589.2783,5.3261.4745,7.9761.8069.3925-.0303.7096-.1027,1.1301-.2253-.0325.0636-.0677.1174-.0981.1877.1847-.1119.3713-.2213.5569-.3304h0c.5377-.2723,1.0726-.866,1.7124-.7615,3.0786-1.5421,6.9435-4.206,8.3142-4.9992,7.8392-5.0555,16.1266-9.5719,24.2627-14.1064,1.1641-.3103,2.2004-1.0695,3.295-1.5849,1.3087-.7893,3.068-1.3292,3.7509-2.8022.375.0475.8352-.0445,1.175.0383,2.074.0987,2.1853,2.2603.3669,2.9573l.0002-.0002Z" style="fill:#214e5a;"/><path d="M10.9817,130.5821c.1883-.0501.3812-.09.5745-.1186-.4328.0133-.8608.0299-1.2919.042.2391.0256.4782.0511.7174.0766Z" style="fill:#214e5a;"/><path d="M16.5845,130.6681c-.0139,0-.0277,0-.0416-.002.0178.002.0337.004.0515.004-.002,0-.0059-.002-.0099-.002Z" style="fill:#214e5a;"/><path d="M4.979,94.9001c.0511.0053.1023.0101.1534.0149.009-.0063.0181-.0126.0273-.0189-.0308-.0584-.0505-.1224-.0581-.1877-.1158.0681-.2324.1367-.3491.2075.0761.0044.1539-.001.2264-.0159h.0001Z" style="fill:#214e5a;"/><path d="M41.5572,96.7416c.8197.0832,1.6425.152,2.4661.2132-1.0114-.0921-2.0238-.1841-3.0353-.2757.1896.0218.3793.0428.5692.0625Z" style="fill:#214e5a;"/><path d="M58.8849,98.3101c-.1152-.0104-.2303-.0208-.3455-.0312.0913.024.1833.048.2754.0715.0239-.0152.047-.0284.0701-.0403Z" style="fill:#214e5a;"/><path d="M5.5597,149.8968c-.0365.4778-.1973.9114-.4852,1.2953.4662.3146,1.0533.382,1.9176.5497,2.1195.3987,4.1137,1.1934,6.3064,1.2283.4148,0,.8074-.0822.9687-.4015.5792-.1016.5412-.7714.3142-1.1835-.5139-1.4879-.7707-3.0502-1.0307-4.6076-.639-4.5312-.2805-9.0861.6873-13.5834.0979-.5024-.3832-.7776-.7705-.6853.4327-.2788.2058-1.0345-.3153-1.0316-1.946.0799-3.9374-.2061-5.8827-.4463.0295-.3474-.0596-.6642-.4753-.8012-1.4568-.4093-1.5923,4.1875-1.8547,5.1951-.9011,4.7851-.5421,9.787.6392,14.4982-.006-.0089-.0129-.0175-.0188-.0264l-.0002.0002ZM5.7272,140.9472c2.2539,2.2377,4.512,4.4839,6.7754,6.7266.0995.5882.2202,1.1724.353,1.7549-2.3728-2.4005-4.7313-4.8157-7.1091-7.2101-.0162-.423-.0217-.8469-.0193-1.2714ZM6.9126,132.4953c1.7941,1.5902,3.5896,3.1774,5.3854,4.766-.0593.4947-.0968.9916-.1377,1.4882-1.8484-1.6944-3.6737-3.4161-5.5165-5.1179.079-.3813.1758-.7583.2688-1.1362h0ZM12.0937,139.4957c-.0266.4196-.0323.8398-.0453,1.2598-1.9019-1.8345-3.7992-3.6814-5.7004-5.5202.0507-.3036.1107-.6052.1675-.9076,1.8611,1.7208,3.7053,3.4593,5.5782,5.168ZM12.0196,141.557c-.0044.4655.0132.9303.0265,1.3954-.6368-.6262-1.2731-1.2529-1.912-1.881.0139.0139.0159.0159.0239.0258-.7964-.7924-1.5769-1.5609-2.3832-2.3632l.002.002c-.5734-.5721-1.1356-1.1334-1.7047-1.6975.051-.3614.1075-.722.1631-1.0828,1.9293,1.8665,3.8514,3.7389,5.7844,5.6013h0ZM6.0272,137.8066c1.9897,1.9879,4.0105,3.9958,6.0383,5.9791.0227.4376.0686.8733.1077,1.3096-2.1023-2.0969-4.2129-4.1982-6.3435-6.2797.0474-.3535.0957-.7075.1439-1.0615.0179.0175.0356.035.0536.0525h0ZM11.8044,145.5616c.1451.145.2981.2987.4474.4482.0276.2354.0713.4686.1039.7034-.7634-.7596-1.5228-1.5167-2.3063-2.2895.002.002.002.004.0039.006-.9852-.9821-1.9731-1.9675-2.9631-2.9459.0002.0004.0002.0007.0002.0007-.4452-.4477-.8967-.8936-1.3489-1.3397.0066-.1829.0203-.366.0311-.549,2.0182,1.9792,4.0474,3.9829,6.0317,5.9658h.0001ZM13.1002,150.4935c.0942.3671.2091.7285.3381,1.0849-.053-.0028-.106-.0087-.1589-.0123-2.4741-2.2878-4.892-4.6391-7.3606-6.935-.0526-.5143-.093-1.0311-.126-1.5489,2.4382,2.4638,4.8646,4.9508,7.3074,7.4113ZM12.3323,151.4727c-.2361-.0316-.4723-.0626-.7079-.1035-1.8575-1.7828-3.7068-3.5756-5.5469-5.378-.0203-.1587-.0398-.3174-.0588-.4764,2.1165,1.972,4.2063,3.9746,6.3136,5.9579ZM8.7215,150.7287c-.762-.7329-1.519-1.4715-2.2719-2.2146-.1015-.5244-.1722-1.0576-.2482-1.5889,1.4478,1.4179,2.9008,2.8304,4.3621,4.2344-.6144-.1332-1.228-.2826-1.842-.4308h0ZM6.831,150.3021c-.0675-.2599-.1243-.5174-.1818-.7751.3225.3144.6455.6284.9683.9427-.262-.0591-.5242-.1149-.7865-.1675h0ZM11.0441,132.7823c.675.0177,1.3944.1871,2.053.0323-.3732,1.3166-.5462,2.7101-.7449,4.0729.0005-.1252,0-.251.0009-.3755-1.6776-1.3528-3.1467-3.0656-4.9457-4.2157,1.207.1984,2.4126.4087,3.6367.486Z" style="fill:#214e5a;"/><path d="M14.7224,152.1835c.0054-.0212.0106-.0424.016-.0596-.012.0399-.0324.074-.0398.1152.01-.0219.0178-.0436.0238-.0556Z" style="fill:#214e5a;"/><path d="M147.0732,159.7172c-.4954-4.3462-.9153-9.2065.7194-13.4106.5606-.465-.1908-1.3157-.7405-.8512-.1886-.1058-.4236-.0849-.606.0366-.2019-.4142-.8052-.2789-1.1984-.3078-.2101-.1366-.4755-.4741-.7203-.2145-.0516.0617-.0574.1308-.0425.203-.6294-.0071-1.2588-.0157-1.8881-.0267-.3281-.1409-.7382-.7747-1.0792-.3928-.0814.1222-.0421.2643.0547.3627-.5557-.0176-1.1106-.0464-1.665-.0854-.3673-.1618-.901-.9561-1.2734-.5494-.1152.1719-.0066.3663.156.4552-.0728-.0078-.1458-.0099-.2184-.0184-.5571-.5484-1.3752.404-.8015.8922-2.1437,6.2487-1.8822,12.6372,1.2143,18.4143.1946.2929.5033.327.7644.2247-.0016.3297.4097.5489.7082.4611,1.4425.1504,2.8719.4085,4.3126.5801.5352.3244,1.019.8026,1.5871,1.0457.2414-.0001.4136-.3629.1589-.5272-.1742-.1194-.348-.2403-.5223-.3599.2437.0291.4275-.064.5508-.2108.0166.0115.0331.0232.0497.0346-.3024,1.0872,1.7051,1.5092,1.7584.3156-.4915-1.9142-.9959-4.0384-1.2789-6.0709v-.0002ZM138.5194,159.16c-.0513-.1769-.0952-.3555-.1414-.5336,2.6375,1.8146,5.296,3.6038,7.9258,5.4302.0315.1312.0623.2625.0952.3933-2.7743-1.392-5.2412-3.5807-7.8796-5.2899ZM138.8017,146.5763c1.5573,1.2134,3.1338,2.4031,4.7167,3.6085-.0039-.002-.0059-.002-.0059-.004-.002,0-.0039-.002-.006-.002.558.424,1.1151.8466,1.6725,1.2695-.0352.194-.0737.3873-.105.5822-2.1737-1.5402-4.3485-3.0797-6.5255-4.6164.0768-.2817.1664-.5593.2532-.8378h0ZM138.3981,148.017c2.1992,1.545,4.3931,3.0974,6.5858,4.6509-.045.3319-.0897.6639-.1217.9973-2.1969-1.6586-4.4187-3.2908-6.6262-4.9272.051-.241.1035-.4816.1621-.7209h0ZM145.9105,162.2097c.0623.3419.1216.6838.1941,1.0239-2.6384-1.8237-5.2976-3.6168-7.937-5.4346-.0586-.2761-.0972-.5555-.144-.8336,2.6405,1.7205,5.2581,3.4969,7.887,5.2443h-.0001ZM145.8965,146.4302c.0284.001.0487-.0101.0753-.012.0276.0198.0618.0422.0852.0604.0017-.025.0039-.0499.0056-.0749.0315-.0068.0691-.0046.0974-.0156-.0623.329-.1226.6586-.1787.9896-.5007-.3224-1-.6461-1.498-.9716.4712.0067.9426.0126,1.4132.024h0ZM143.3971,146.3861c.8192.543,1.645,1.0765,2.4734,1.6053-.07.4026-.0761.8188-.2036,1.2098-1.3191-.9514-2.6378-1.9031-3.9526-2.8614.5605.021,1.1216.037,1.6829.0463h-.0001ZM145.5231,149.8122c-.0806.3361-.1616.6716-.2312,1.0116-2.0335-1.5497-4.079-3.083-6.0933-4.6654.4861.053.9725.1014,1.4604.1314,1.6213,1.1744,3.2419,2.3494,4.864,3.5224h0ZM138.1725,149.0198c-.0068.1234-.0142.2467-.0208.3701,2.198,1.6753,4.4421,3.2982,6.6641,4.947-.0225.3342-.0496.6682-.0574,1.0026-2.2186-1.5919-4.4392-3.182-6.667-4.7582-.0105.2227-.0205.4454-.03.6683,2.2462,1.585,4.4728,3.1984,6.7063,4.8022.002.1996-.0002.3994.0077.5988-2.2638-1.5739-4.4865-3.2049-6.7406-4.7953-.0079.2315-.0228.4633-.0227.6952,2.2522,1.6379,4.5393,3.2341,6.8127,4.8381.0146.1882.0314.376.0515.5635-2.2898-1.5743-4.5796-3.149-6.8674-4.7263-.0011.2296-.002.4597-.0026.6893,2.3253,1.595,4.6439,3.1995,6.9655,4.7985.0587.3889.1223.7771.2079,1.1616-2.3929-1.7505-4.7867-3.4998-7.1744-5.2573,0,.2327.0002.4655.0009.6981,2.467,1.8157,4.9386,3.6248,7.41,5.4337.0521.1851.0951.3719.1541.5556-2.5245-1.6705-5.024-3.3746-7.5588-5.0291.0015.2156.0031.4316.0049.6472-.4348-2.6121-.363-5.2995.1562-7.9035h0ZM141.9112,163.8684c-.396-.0172-1.1902-.2153-1.7039-.0969-.2523-.699-.6772-1.3536-.8994-2.0737,1.073.7559,2.1552,1.4977,3.2336,2.2452-.2119-.0255-.4136-.0478-.6304-.0747h.0001ZM143.7211,164.0829c-1.5741-1.0943-3.1669-2.1907-4.7308-3.3146-.0792-.249-.1554-.4987-.2291-.7494,1.9958,1.4086,4.0044,2.7973,6.0126,4.1863-.3473-.0397-.7052-.0822-1.0526-.1223h-.0001Z" style="fill:#214e5a;"/><path d="M53.4391,62.6145c.1831-.0191.3648-.0404.5475-.0593-.7692-1.4219-1.5226-2.8514-2.2383-4.3001-.2244-.0159-.4469-.0317-.6713-.0477.7249,1.4835,1.4895,2.9471,2.272,4.4008l.0901.0062h0Z" style="fill:#214e5a;"/><path d="M56.024,62.3782c.0759-.0068.1519-.0136.228-.0206-.8313-1.3354-1.6681-2.6547-2.4683-4.0109-.2205-.004-.4408-.0119-.6633-.0198.7908,1.3777,1.6147,2.7388,2.4567,4.0893.149-.0123.2982-.0248.4469-.038Z" style="fill:#214e5a;"/><path d="M58.2524,62.178c.2148-.0166.43-.0312.6451-.0415-.7151-1.2557-1.4238-2.5142-2.1208-3.7782-.2397.0021-.4794.002-.719.002.7795,1.2592,1.4643,2.5386,2.1947,3.8177Z" style="fill:#214e5a;"/><path d="M60.9415,62.062c.2094-.0189.4182-.0425.6272-.0677-.7244-1.2401-1.3973-2.4933-2.1567-3.719-.2104.0099-.4231.0198-.6335.0298.7428,1.2472,1.4293,2.507,2.1631,3.757h-.0001Z" style="fill:#214e5a;"/><path d="M64.8151,61.8476c-.7426-1.265-1.4755-2.535-2.188-3.8147-.2124.0238-.4229.0457-.6355.0635.6904,1.2447,1.3999,2.4796,2.1194,3.7095.2347.0067.4696.0208.7041.0416h0Z" style="fill:#214e5a;"/><path d="M159.0055,76.2312c.0194-.013.0388-.0261.0583-.0392-.1042-.0005-.2087-.0013-.3131-.0013.0853.0131.17.0267.2548.0405h0Z" style="fill:#214e5a;"/><path d="M12.4385,133.9462c-.3392-.285-.6799-.5684-1.0203-.8521-.3492-.017-.6974-.0426-1.0436-.0802.6707.5715,1.348,1.1353,2.0281,1.6968.012-.2542.0259-.5104.0358-.7646h0Z" style="fill:#214e5a;"/><path d="M24.7715,69.211c-.0139.0437-.0277.0874-.0416.1311.0139-.0437.0298-.0894.0437-.1331l-.0021.002Z" style="fill:#214e5a;"/><path d="M62.4415,66.8249c11.5816,1.0389,23.1614,2.0759,34.7412,3.1171-.1206-.2028.0046-.4438.0105-.6649-19.0938-1.6951-38.1869-3.4162-57.2819-5.1094-.0579.195-.0868.4343-.288.5302-.0139.0258-.0259.0516-.0398.0775,7.6193.6849,15.2386,1.3677,22.8579,2.0495h0Z" style="fill:#214e5a;"/><path d="M98.7203,70.042c-.0144.0122-.0293.0237-.0448.0343.031.0028.0626.0056.0936.0084-.0172-.0129-.0334-.0272-.0488-.0427Z" style="fill:#214e5a;"/><path d="M99.2526,70.1036c-.0126.0078-.0251.0148-.0378.0212.024.0022.0479.0043.072.0065-.0117-.0087-.0232-.0179-.0342-.0278h0Z" style="fill:#214e5a;"/><path d="M102.1678,70.1561c.0127-.142.0289-.2878.0557-.4292-.6897-.0615-1.3796-.123-2.0693-.1844.0163.2918-.1731.5037-.421.6295.8367.0752,1.6737.1503,2.5104.2255-.0525-.0682-.0828-.152-.0757-.2413h-.0001Z" style="fill:#214e5a;"/><path d="M53.8019,98.791c1.1616-.0588,2.3655.041,3.5353.1365.3463.0268.4048-.5269.0576-.5699-1.2587-.107-2.5428-.2319-3.8011-.1073-.1012.0259-.1865.0954-.2163.1987-.0861.2413.2039.4938.4246.342h0Z" style="fill:#214e5a;"/><path d="M59.4313,99.0405c16.6057,1.5774,33.2192,3.1361,49.8276,4.6881.0261-.2284.0532-.4568.0806-.6854-13.3271-1.2196-26.6541-2.4607-39.9827-3.6651-3.2978-.296-6.5914-.6092-9.8879-.8977-.3444-.0214-.3918.5336-.0376.5601Z" style="fill:#214e5a;"/><path d="M112.1705,103.7335c-.0278.0894-.0615.1747-.1013.2582.6774.0637,1.3547.1273,2.0322.191.0331-.2332.0361-.4664.0503-.6998-.6974-.0639-1.395-.1277-2.0924-.1923.1152.1112.163.284.1112.4429Z" style="fill:#214e5a;"/><path d="M115.5797,104.3208c7.3222.6839,14.6444,1.3742,21.9658,2.0541-.0003-.2441.0031-.4867.0068-.7307-7.3488-.6795-14.6976-1.356-22.0461-2.0363.179.191.0771.4788.0735.713h0Z" style="fill:#214e5a;"/><path d="M75.1048,135.0081c.1064.0628.2244.1229.2781.2383.0803.0198.1606.0403.241.0606-.1396.2271.1096.5712.3999.3704.2516-.0002.5062.1697.7628.1187.0219.0375.0469.0736.058.1155,5.3358.5277,10.6727,1.0482,16.0103,1.574.0615-.2547.152-.5027.2947-.7252-6.0153-.587-12.0297-1.1686-18.0447-1.7524h0Z" style="fill:#214e5a;"/><path d="M97.1576,137.8358c.0074-.2274.0246-.4555.0322-.6832-.6814-.0662-1.3625-.1324-2.046-.1985-.0377.2482-.0656.4985-.0953.7467.7041.0704,1.408.1389,2.1121.2092-.0029-.0243-.0039-.0491-.0029-.0742h-.0001Z" style="fill:#214e5a;"/><path d="M186.0829,121.1634c-1.6674.9775-3.3362,1.9526-5.0044,2.9293.0002.0222-.0018.0441-.0054.0656.0095.0156.0186.0314.0271.0475.167.053.3064.1826.3655.34,1.6379-.9518,3.2729-1.9125,4.9111-2.8621.3378-.1864.0433-.7137-.2939-.5203Z" style="fill:#214e5a;"/><path d="M179.619,124.9476c-3.9566,2.3073-7.9105,4.616-11.8639,6.9269.1971.6743-.4953,1.0998-.85.4985-.0181.0105-.0363.0211-.0542.0316.1727.1089.3027.2823.3409.4825,4.2152-2.4643,8.4291-4.9236,12.6436-7.3893-.1373-.1411-.1963-.3535-.2164-.5501h0Z" style="fill:#214e5a;"/><polygon points="160.7523 136.4836 160.7508 136.4759 160.7508 136.4818 160.7523 136.4836" style="fill:#214e5a;"/><path d="M161.4964,135.5389c-.2749.1616-.5502.3231-.8251.4842.0012.1173.0257.2323.0555.3436,0,0-.002,0-.002-.002.0035.0938.066.1522.1133.2244.3209-.1867.6418-.3735.9629-.5602-.1678-.0997-.2918-.2908-.3047-.49h.0001Z" style="fill:#214e5a;"/><path d="M94.0594,40.7748c.1113-.1345.2229-.269.3347-.4034-.0038-.0034-.0076-.0068-.0115-.0103-.1077.1379-.2155.2758-.3232.4136h0Z" style="fill:#214e5a;"/><path d="M95.1022,39.4407c.0198.0068.0399.011.0601.0126.1042-.124.2085-.248.3127-.3719-.0076-.0245-.019-.0488-.0353-.0724-.1125.1439-.225.2878-.3375.4318h0Z" style="fill:#214e5a;"/><path d="M119.65,14.4833c-.0476-.143-.2106-.2264-.3555-.1768-.7234.194-1.3638.471-1.6794,1.1949.6111-.2269,1.2382-.4469,1.8601-.6627.1431-.0496.2244-.2105.1748-.3555h0Z" style="fill:#214e5a;"/><path d="M122.5533,13.6238c-.0697-.3611-.6785-.2424-.6038.1191.071.3617.6785.243.6038-.1191Z" style="fill:#214e5a;"/><polygon points="127.0189 13.1621 127.014 13.1596 127.0078 13.1621 127.0189 13.1621" style="fill:#214e5a;"/><path d="M127.014,13.1596c2.2803-1.0613,4.8307-1.6052,7.2861-2.2039.1489-.0358.2522-.1768.2203-.3297-.0277-.147-.1807-.2562-.3297-.2224-1.4329.3416-2.8713.6644-4.2855,1.0823-.3864.1622-4.2677,1.1284-2.8912,1.6736h0Z" style="fill:#214e5a;"/><path d="M137.8273,10.3087c.6981-.1562,1.4082-.1977,2.1265-.2744.3701-.026.3296-.6005-.0397-.572-.4391.1191-2.5887-.0013-2.3612.6533.0411.1247.1548.1931.2744.1931h0Z" style="fill:#214e5a;"/><path d="M145.1527,10.0494h-.0359c.4103.0891.5657-.5094.1292-.564-.3374.0557-1.0371-.1519-1.0784.3376.0812.4598.6677.1741.9851.2264Z" style="fill:#214e5a;"/><path d="M149.3638,10.8034c2.5493.122,4.9945.8916,7.4572,1.5827.3528.1202.5331-.436.1805-.548-.4144-.1927-9.5624-2.6654-7.6377-1.0347Z" style="fill:#214e5a;"/><path d="M160.6587,13.5114c.8685-.0417,1.7622.2594,2.6273.4409.3574.0739.4683-.4891.1052-.556-.718-.1677-1.4362-.3579-2.1705-.4449-.2384-.0198-.6434-.0913-.7408.2046-.0496.145.0338.3078.1788.3555h0Z" style="fill:#214e5a;"/><path d="M166.7363,14.9488c1.3722.2824,2.6952.8442,4.025,1.2988.3542.1243.5365-.4351.1807-.5501-1.4226-.456-2.83-1.1762-4.3232-1.3148-.37.066-.245.6487.1176.5661h0Z" style="fill:#214e5a;"/><path d="M175.2888,17.8636c.838.1451,1.6294.3549,2.4447.5736.1628-.1522.3262-.3035.4904-.4539-.9916-.2667-1.9869-.5876-3.0017-.6875-.1688.0123-.259.1422-.259.2798,0,.1569.1093.3118.3257.288h-.0001Z" style="fill:#214e5a;"/><path d="M175.1935,17.2917c.0372.0097.0672-.006.1072,0-.0397-.006-.0714-.004-.1072,0Z" style="fill:#214e5a;"/><path d="M114.3612,19.9743c2.6926-.6846,5.4211-1.2028,8.1541-1.7039.1509-.0278.2502-.1827.2205-.3336-.0298-.153-.1807-.2483-.3317-.2205-.7566.137-1.5112.274-2.266.4171-2.123.4041-4.2412.8533-6.335,1.3921-.1509.0278-.2522.1847-.2224.3356.0983.3784.5208.1706.7805.1132Z" style="fill:#214e5a;"/><path d="M126.6922,17.4422s.005.0016.005.0015c3.4259-1.2305,7.0804-1.8175,10.6515-2.4939.3572-.0678.2514-.6276-.1093-.556-1.4835.2641-2.9688.5322-4.4425.844-.6567.2148-7.3578,1.3915-6.502,2.1804.1053.1193.2781.1193.3972.024h0Z" style="fill:#214e5a;"/><path d="M138.3089,14.6335c3.2703-.7008,6.6924.0824,9.9825.3777.3685.0279.3961-.5445.0338-.5659-3.3995-.2672-7.0259-1.2175-10.3665-.2585-.2651.2256.0724.6492.3501.4467h.0001Z" style="fill:#214e5a;"/><path d="M161.4728,17.5054c.3586.0768.4626-.4907.1052-.556-3.2975-.7848-6.5918-1.683-9.9733-1.9999-.3784.0181-.3373.6108.0355.5823,3.3274.3362,6.5842,1.1944,9.8325,1.9736h0Z" style="fill:#214e5a;"/><path d="M164.107,18.4125c2.2236.5039,4.4216,1.2776,6.5752,2.0377.3494.1208.5232-.4289.1768-.5402-2.2417-.7621-4.488-1.6429-6.8176-2.0654-.1211.0239-.2323.1371-.2323.2662-.0023.1647.125.3114.298.3017h-.0001Z" style="fill:#214e5a;"/><path d="M173.9165,21.5693c.1388.0553.278.1104.4176.1652.1475-.1454.2958-.2901.4436-.4351-.3187-.0653-.8364-.5323-1.0419-.0875-.0497.1509.0358.3039.1807.3575h0Z" style="fill:#214e5a;"/><path d="M108.6544,25.0536c2.4674-.7694,5.0149-1.3169,7.494-2.0079.1311-.1791-.0028-.5104-.2792-.4527-2.1823.5475-4.3873,1.0156-6.5436,1.6642-.2244.2641-.4469.5302-.6713.7963h0Z" style="fill:#214e5a;"/><path d="M118.5033,22.1606c.0098.2514.3481.3618.504.1661,2.8822-.9972,5.8317-1.7358,8.808-2.4081.3657-.0728.2471-.6385-.1132-.562-.9592.2244-1.9204.4488-2.8795.6772-1.9382.4447-3.833,1.0502-5.7275,1.6523-.2334.0801-.6011.1653-.5918.4746h0Z" style="fill:#214e5a;"/><path d="M141.2667,17.4715c-3.5233.2019-7.0247.5767-10.4995,1.1758-.157.0277-.2603.1885-.2305.3434.0281.1384.1536.2335.2891.2335,3.4707-.5943,6.9534-.9896,10.4806-1.1847.3697-.0248.3247-.5938-.0397-.5681h0Z" style="fill:#214e5a;"/><path d="M145.0239,17.4757c-.2939.0179-.7686.0815-.7467.4747.0067.2706.3962.3687.531.1382,2.2383-.183,4.5317.0846,6.7693.2648.3657.0262.3954-.5422.0337-.5639-2.1904-.1976-4.387-.4039-6.5873-.3138h0Z" style="fill:#214e5a;"/><path d="M155.2715,19.3133c2.8085.3528,5.5385,1.2108,8.2355,2.0554.3473.118.5208-.4267.1748-.5361-.4412-.1733-10.4133-3.2669-8.4103-1.5192h0Z" style="fill:#214e5a;"/><path d="M168.2408,22.8145c-.5051-.2705-.8669.4125-.282.5322h-.0139c.973.3118,1.9143.7229,2.8696,1.0863-.0063-.0018-.0123-.0045-.0187-.006.2141.0809.427.165.6385.2515.144-.1494.2883-.2986.4325-.4476-1.1917-.4811-2.4068-.9746-3.6261-1.4164h.0001Z" style="fill:#214e5a;"/><path d="M124.5917,24.0145c-2.0099.4942-4.0436.9104-6.027,1.4995-.01.2378-.0786.4805-.1606.6993,2.0055-.7617,4.2106-1.0823,6.2969-1.6446.3634-.0695.2443-.6276-.1093-.5541h0Z" style="fill:#214e5a;"/><path d="M126.5873,23.9608c.0112.1435.1375.2672.283.2672.7861-.0765,1.5721-.1544,2.3584-.2374.8678-.0913,1.7356-.1866,2.6016-.2859.1548-.0159.2759-.143.2661-.3019-.012-.1509-.151-.282-.304-.2661-1.6443.1867-3.2906.3674-4.939.5203-.1549.0139-.276.145-.2661.3038Z" style="fill:#214e5a;"/><path d="M133.8169,23.0802c-.2729.2318.0778.6614.359.4571,5.294-.7543,10.673-.235,15.9812.1449.3732.0269.3959-.5495.0336-.57-5.4208-.3181-11.0125-1.0588-16.3738-.032Z" style="fill:#214e5a;"/><path d="M157.3937,24.1937c-.9412-.2065-1.8826-.4111-2.8279-.5918-.4872-.017-3.1521-.7952-3.0146-.008.031.1551.1755.2418.3246.2256,1.8229.0854,3.5973.5632,5.4128.9302.3607.0761.4655-.4913.1051-.556Z" style="fill:#214e5a;"/><path d="M159.6219,25.3406c2.8154,1.0361,5.6101,2.1191,8.3735,3.283.123-.1524.2466-.3046.3711-.4561-2.8252-1.1951-5.686-2.3049-8.5659-3.3711-.3535-.1191-.5283.4329-.1787.5442Z" style="fill:#214e5a;"/><path d="M109.1424,30.5056c-.0298-.1469-.1846-.2601-.3335-.2224-1.924.476-3.8439.953-5.7688,1.4221-.2246.2491-.4501.4974-.6763.7451,2.1885-.5274,4.3748-1.0634,6.5562-1.6131.1489-.0377.2522-.1768.2224-.3317Z" style="fill:#214e5a;"/><path d="M111.0106,30.0464c.1221.5164.8215.1396,1.1875.143,1.9829-.3013,3.9167-.8703,5.9022-1.1618,1.1261-.1907,2.2501-.3833,3.3761-.566.3672-.0675.245-.6293-.1113-.558-3.3314.4627-6.5923,1.2751-9.9077,1.8212-.1947.0009-.4678.0608-.4468.3217h0Z" style="fill:#214e5a;"/><path d="M124.3287,27.8623c.1609.1496.3474-.0032.5065-.0438,2.9998-.7607,6.0663-1.1959,9.1173-1.6899.3601-.0658.2441-.6268-.1111-.5521-1.0208.1628-2.0416.3297-3.0643.4965-2.0303.312-4.05.6978-6.0431,1.1975-.2836.029-.6929.2998-.4053.5918Z" style="fill:#214e5a;"/><path d="M139.0293,25.2807c-.3777.0803-1.3712-.1844-1.4061.3474.0095.1415.1335.2633.2769.2633.8148-.066,1.6319-.0502,2.45-.0646.1528-.002.27-.1529.2601-.2999-.0099-.1589-.147-.2621-.2999-.2621-.427.004-.8539.0079-1.2809.0159h-.0001Z" style="fill:#214e5a;"/><path d="M110.2289,33.4686c-3.4088.5955-6.8547,1.0155-10.2703,1.5898-.2041.22-.4091.4391-.6149.6575,3.6552-.6315,7.3774-1.0121,10.9943-1.6933.3674-.0675.2402-.6255-.1091-.5541h0Z" style="fill:#214e5a;"/><path d="M119.8671,32.0487c-2.2686.1048-4.5295.3739-6.772.7368-.3101-.0065-.6108.3207-.3019.564,2.3263-.2285,4.7372-.682,7.1137-.7427.3605-.021.3228-.5847-.0398-.5581Z" style="fill:#214e5a;"/><path d="M121.7676,32.0201c-.151.0258-.3383.0178-.4489.1429-.1508.1647-.0312.4589.1947.4647.1241-.0066.2404-.0444.3654-.0556.3562-.0661.2476-.6231-.1112-.5521h0Z" style="fill:#214e5a;"/><path d="M138.5297,30.9976c-3.5297.1099-7.0565.1952-10.5791.4389-.4067.1078-1.7993-.1137-1.7416.4825.0293.1536.1874.2585.3375.2265,3.9904-.411,8.0124-.4407,12.0207-.5859.3604-.0212.3277-.5858-.0376-.562h0Z" style="fill:#214e5a;"/><path d="M157.0997,35.2417c-4.246-1.5059-8.4615-3.1938-12.9718-3.7176-.404.0254-1.6242-.4863-1.7001.0772-.0159.2616.2478.316.4548.3238,4.8699.459,9.4772,2.1938,14.0405,3.8528.3467.118.5197-.424.1766-.5363h0Z" style="fill:#214e5a;"/><path d="M159.7391,36.4677c.5786.0438,1.146.145,1.704.2869.1285-.1608.2573-.3218.3859-.4824-.7168-.2009-1.4482-.3364-2.1952-.3605-.3574.0676-.2462.6236.1053.5561h0Z" style="fill:#214e5a;"/><path d="M104.6901,37.5517c-2.8337.4346-5.6665.9244-8.4592,1.5789-.1829.2326-.3647.4659-.5457.6999,3.0107-.7213,6.0907-1.21,9.1182-1.7089.3752-.0695.2482-.6415-.1133-.5699Z" style="fill:#214e5a;"/><path d="M112.8744,36.9826c-1.2363.0443-2.4734.0823-3.7117.1231-.3735.09-1.3054-.1725-1.2888.4051.0281.1473.1687.2408.3109.2274,1.5686-.1249,3.1569-.1144,4.7294-.1916.3634-.0196.3267-.5901-.0398-.564Z" style="fill:#214e5a;"/><path d="M117.5621,36.8805c-.3022.0478-.7742-.1897-.9314.1667-.0974.5124.5833.3696.8955.4032.3708.024.4047-.5531.0359-.5699Z" style="fill:#214e5a;"/><path d="M125.8434,36.5055c-.8838.0596-1.7676.1132-2.6472.1986-.151.0159-.2682.1429-.2583.2959.0095.1493.1467.2745.2959.2582.8799-.0854,1.7635-.137,2.6472-.1966.151-.0099.2682-.145.2583-.296-.01-.1529-.145-.2701-.2959-.2601Z" style="fill:#214e5a;"/><path d="M135.7037,37.4031c-1.9268-.2133-3.9177-.6564-5.8464-.298-.1489.0339-.2502.1769-.2205.3318.0298.147.1829.2562.3318.2205,1.8517-.332,3.7727.0965,5.63.2997.3585.0692.4613-.4913.1051-.554Z" style="fill:#214e5a;"/><path d="M152.0544,41.5949c-4.2529-1.3139-8.5455-2.7346-12.9244-3.5253-.3738-.0218-.4024.5592-.0338.5743,4.2938.7736,8.6089,2.1859,12.7834,3.4811.3435.1177.5176-.4214.1747-.53h.0001Z" style="fill:#214e5a;"/><path d="M57.0985,7.3316c2.2337-.2938,4.5365-.3515,6.7983-.3896.153,0,.27-.1529.2603-.2979-.01-.1569-.145-.2601-.298-.2582-1.2267.0083-2.4536.0508-3.6779.1152-1.0486.0626-2.1027.1028-3.1418.2701-.1528.0258-.2522.1867-.2224.3337.0265.1376.1487.2267.2815.2267Z" style="fill:#214e5a;"/><path d="M69.2655,7.1812c.5847.0103,1.1692.0437,1.7539.0811.1516.0103.2883-.111.2979-.2642.0079-.1529-.1112-.2859-.2642-.2959-.7343-.0392-1.472-.1123-2.2063-.0695-.2085-.0075-.449.115-.4032.3555.0992.3774.5449.1556.8219.1929h0Z" style="fill:#214e5a;"/><path d="M72.6196,7.3836c.4131.0536.8262.1152,1.2372.1747.3569.069.4658-.4907.1052-.5541-.411-.0596-.8241-.1231-1.2371-.1747-.1531-.0199-.3.0655-.3318.2244-.0258.145.0735.3098.2264.3297h0Z" style="fill:#214e5a;"/><path d="M77.9873,8.328c4.5535.7248,9.0294,2.0649,13.4069,3.527.142.0477.3081-.0347.3535-.1787.0764-.4915-.6582-.4418-.9709-.6177-.5211-.2628-15.1394-4.6744-12.7894-2.7306h0Z" style="fill:#214e5a;"/><path d="M95.3192,12.9439c.0269-.4184-.7856-.4147-.7566.004.0232.3677.7368.3633.7566-.004Z" style="fill:#214e5a;"/><path d="M97.4151,14.2083c.5762.2063,1.1321.4601,1.6755.7419.1279-.1428.2559-.2856.3838-.4284-.6116-.3231-1.2378-.6125-1.8885-.8397-.3416-.1132-.5123.419-.1708.5262Z" style="fill:#214e5a;"/><path d="M52.6593,10.9436c-.0032.0002-.0065.0004-.0095.0004.4111-.0516.8241-.0953,1.2372-.137.151-.0139.2682-.141.2582-.2959-.01-.149-.145-.274-.2959-.2582-.6455.0615-1.2908.131-1.9303.2343-.149.0258-.2462.1827-.2184.3277.1301.4163.6536.1198.9587.1287Z" style="fill:#214e5a;"/><path d="M57.2651,10.6756c.0311.1576.184.2466.3336.2224.2087-.0197.568-.0229.5461-.3336-.01-.1509-.147-.278-.3018-.2621-.2444.0128-.6357.032-.578.3734h0Z" style="fill:#214e5a;"/><path d="M61.4559,10.7384c-.0079.1489.1112.2919.2622.2979,3.54.233,7.0703.6414,10.6086.8857.3597.0266.389-.5344.0338-.554-3.5396-.2511-7.0688-.652-10.6088-.8918-.1528-.0039-.2859.1073-.2959.2623h.0001Z" style="fill:#214e5a;"/><path d="M75.4381,12.4655c.7471.0961,1.479.1815,2.2322.284.3518.0687.4612-.4844.1033-.5461-.7429-.0998-1.4871-.1895-2.2322-.284-.1509-.0199-.2959.0655-.3257.2204-.0278.143.0715.3058.2224.3257Z" style="fill:#214e5a;"/><path d="M81.4579,13.5535c4.8731.7576,9.6029,2.5027,14.261,4.1107.3486.1197.5183-.4243.1765-.536-.6289-.317-16.7479-5.7563-14.4375-3.5746h0Z" style="fill:#214e5a;"/><path d="M61.6196,15.1964c-.0514-.527-.8829-.2426-1.2491-.306-.365.0204-.3263.5916.0398.5641.3715-.0942,1.0862.239,1.2094-.2582h0Z" style="fill:#214e5a;"/><path d="M65.2233,15.4163c-.373-.0219-.3801.5544-.0078.556.3717.0239.3823-.5551.0078-.556Z" style="fill:#214e5a;"/><path d="M77.9331,17.3941c-3.7766-.6769-7.5345-1.6328-11.3793-1.7933-.3727.0235-.3313.6037.0378.574,3.7947.1538,7.5066,1.109,11.2361,1.7694.3588.0709.4568-.4843.1053-.55h0Z" style="fill:#214e5a;"/><path d="M80.0961,17.7194c-.3635-.0219-.3873.5421-.0338.556,4.299.9012,8.547,2.2563,12.5721,4.0833.1215-.142.2426-.2838.364-.4258-4.3845-2.0161-8.2917-3.2443-12.9023-4.2134h0Z" style="fill:#214e5a;"/><path d="M40.265,19.1689c-.2568.1964-.5134.3932-.7698.5903.2393-.0129.4781-.0243.7168-.0344.3319-.0198.3262-.4919.053-.5559Z" style="fill:#214e5a;"/><path d="M44.8385,19.4165c.3635-.0206.3269-.5944-.0398-.5641-.3456.0354-1.2766-.0502-.9453.5402.2747.2007.6631-.0076.9851.0239Z" style="fill:#214e5a;"/><path d="M50.1443,19.1466c3.2782-.28,6.5834-.3007,9.8644.071.3679.0261.3962-.5454.0337-.5681-3.3599-.3334-6.7961-.4321-10.14-.008-.2738.1667-.0516.613.2419.5051Z" style="fill:#214e5a;"/><path d="M64.7108,19.8052c.012.155.147.2682.2999.2602.6072.0052,1.2141.0753,1.8191.1212.3615.0264.3949-.541.0338-.56-.4446.0549-2.1761-.4393-2.1528.1786Z" style="fill:#214e5a;"/><path d="M70.8526,20.7893c.1461.2982.823.1312.7407-.2244-.0859-.4233-.9438-.1964-.7407.2244Z" style="fill:#214e5a;"/><path d="M81.6341,22.0783c-2.2185-.4645-4.4407-.9908-6.6985-1.2055-.364-.0229-.396.5439-.0339.5601,2.2229.2181,4.4353.7462,6.6271,1.2034.3604.0765.4657-.4935.1053-.558Z" style="fill:#214e5a;"/><path d="M87.8661,23.69c-.391-.024-.4271.5869-.0359.6037.3909.024.4271-.5869.0359-.6037Z" style="fill:#214e5a;"/><path d="M86.6034,23.2897c-.7298-.1692-1.6459-.6097-2.3395-.6356-.7922.6797,1.7677.9254,2.1607,1.1799.3494.1213.5325-.4339.1788-.5443Z" style="fill:#214e5a;"/><path d="M38.3346,23.2593c2.5348-.335,5.1133-.1915,7.6658-.2622.364-.0174.3206-.5841-.0378-.5599-.927.1273-8.2826-.2634-7.9614.5995.031.1558.1842.2468.3335.2226h-.0001Z" style="fill:#214e5a;"/><path d="M49.1898,23.0198c-.0211-.4281-.9487-.3098-.8558.1111.0535.367.9034.2585.8558-.1111Z" style="fill:#214e5a;"/><path d="M53.2035,23.445c6.0762.052,12.1296.8455,18.1492,1.6521.3647.0722.4608-.4968.1052-.5599-6.0594-.8163-12.1748-1.619-18.2922-1.6624-.3723.0233-.3259.5994.0378.5701h0Z" style="fill:#214e5a;"/><path d="M79.4757,26.4552c-2.0597-.4218-4.1129-1.0358-6.2097-1.2036-.151.006-.2701.147-.2583.296.01.1529.145.2661.2959.2581,2.0466.2047,4.0552.7759,6.0691,1.1974.354.0737.457-.4816.103-.548h0Z" style="fill:#214e5a;"/><path d="M83.8441,27.9394c-.6287-.1943-1.238-.4843-1.8767-.6296-.3245.0131-.3403.514-.0225.5562.5776.1956,1.1479.4076,1.7244.6076.3419.1152.5217-.4219.1748-.5342Z" style="fill:#214e5a;"/><path d="M86.286,29.2556c-.0449.2248.1647.3312.3505.3701.1255-.1575.2509-.3146.3767-.4719-.2423-.0822-.639-.2648-.7272.1019h0Z" style="fill:#214e5a;"/><path d="M30.7711,28.0796c-.6832.0891-1.3647.1775-2.0466.2702-.2651.2256-.5295.4521-.7933.6793.9564-.1398,1.9159-.2675,2.8795-.3895.3635-.0258.3198-.5918-.0396-.56Z" style="fill:#214e5a;"/><path d="M32.1031,28.2741c1.3162-.2356,2.6501-.3257,3.9995-.4866.3635-.0242.3196-.5905-.0397-.558-1.2396.1382-2.4794.2581-3.7157.431-.2522.0349-.7024.0757-.5977.4389.0493.1504.2109.2163.3535.1747h0Z" style="fill:#214e5a;"/><path d="M42.1871,27.2791c-.489.1077-3.1936-.2354-2.8795.546.0704.1497.2491.181.3774.1232-.0104.0035-.021.0075-.0338.0139.8354-.1584,1.7222-.0831,2.5758-.1291.3575-.0206.3181-.581-.0399-.554Z" style="fill:#214e5a;"/><path d="M48.5766,27.3691c-1.1162-.0339-2.2362-.1353-3.3522-.0735-.155.0139-.2742.143-.2642.3019.0099.1489.1489.278.3018.2621,1.0924-.0558,2.1892.0367,3.2808.0734.3655.0231.3999-.5463.0338-.564h0Z" style="fill:#214e5a;"/><path d="M58.3716,28.4432c-.8898-.0933-1.7794-.1807-2.671-.2681-.5139.0258-2.8862-.4695-2.8796.2025.0099.1511.1489.2801.3038.2642,1.7423-.0898,3.4789.2258,5.213.3654.3645.027.4001-.5436.0338-.564Z" style="fill:#214e5a;"/><path d="M61.8754,29.1855c-.1548-.0079-.2919.1112-.2998.2661-.0099.1509.1112.2919.2661.2999.6306.0538,1.2595.1593,1.8914.2726-.1006-.1915-.1719-.3973-.2112-.6094-.5466-.0959-1.0942-.1816-1.6465-.2292Z" style="fill:#214e5a;"/><path d="M71.3838,36.4327c2.4764.7965,4.8974,1.7886,7.1461,3.1053.1264-.1431.2525-.2864.3792-.4292-2.3101-1.3511-4.8046-2.4052-7.3506-3.2064-.3474-.1212-.5143.423-.1747.5302h0Z" style="fill:#214e5a;"/><path d="M66.7645,34.8684c-.5444-.1318-1.0996-.2107-1.6501-.3118-.1489-.0258-.2959.0715-.3257.2225-.0278.1469.0735.2979.2224.3237.5273.0975,1.0576.1748,1.5808.2959.3403.1113.5189-.4216.1726-.5303Z" style="fill:#214e5a;"/><path d="M57.5304,32.9206c-.3546-.0698-.4575.4826-.1033.5462.5962.1146,1.2046.1901,1.7849.3716l-.0076-.0029c.1382.056.3027.0145.3713-.1304.2495-.6325-1.6317-.6261-2.0454-.7845h0Z" style="fill:#214e5a;"/><path d="M49.9693,31.7151c-1.309-.0601-2.6187-.0584-3.9281-.1073-.36-.0228-.3907.5375-.0316.5541,1.3059.0488,2.6205.0505,3.926.1093.3611.0226.3934-.5355.0337-.556h0Z" style="fill:#214e5a;"/><path d="M29.701,31.811c.0264.3964.8191.3236.7944-.0615-.0249-.3989-.8201-.3268-.7944.0615Z" style="fill:#214e5a;"/><path d="M31.5777,31.8694c3.1069-.0004,6.2581-.3353,9.3438-.0319.145.0418.3019-.0317.3496-.1766.2998-.8304-4.0764-.3909-4.6968-.4668-1.6777.0347-3.3564.0807-5.0342.1193-.3553.0198-.3238.5812.0376.556Z" style="fill:#214e5a;"/><path d="M25.3243,31.9242c.3939-.0429.3637-.5327-.0555-.5645-.2015.1787-.4025.3583-.6024.5385.2202-.0032.444-.0229.658.0259h-.0001Z" style="fill:#214e5a;"/><path d="M199.9139,66.6312c.0093-.1653.0188-.3308.0281-.4963-.0088.0039-.0178.0078-.0266.0116-.0005.1617-.001.3232-.0015.4847h0Z" style="fill:#214e5a;"/><path d="M199.9169,65.3009c-.0002.1193-.0005.2386-.0007.358.0183-.0083.0366-.0165.0547-.0248.0115-.1943.0232-.3887.0349-.583-.0295.0837-.0591.1677-.0889.2498Z" style="fill:#214e5a;"/><path d="M193.2416,122.7011c-.092.0506-.1843.1012-.2764.1518.0747-.0151.1516-.0247.231-.0281.0151-.0402.0303-.0818.0454-.1237Z" style="fill:#214e5a;"/><path d="M100.7518,72.4574c-.0005.0057-.001.0112-.0016.0169.1073.0042.2142.0082.3214.0123-.1055-.0168-.2129-.0243-.3198-.0292Z" style="fill:#214e5a;"/><path d="M12.3158,60.8442c-.188-.0265-.376-.0529-.564-.0793-.0403.1704-.0808.3411-.1216.512.1956.0041.3912.0082.5869.0123.0344-.1524.0674-.3008.0986-.445h.0001Z" style="fill:#214e5a;"/><path d="M11.0694,86.4634c.2153.5291.7847.0571.4548-.3495-.2343-.2607-.6211.0564-.4548.3495Z" style="fill:#214e5a;"/><path d="M14.6022,74.7765c-.0735.0059-.1489.0377-.1965.0973-.2934,1.1678-.1948,2.456-.2643,3.6739-.0256.3645.5476.4102.568.0417.0163-1.1956.0691-2.3962.1848-3.5845-.0259-.1351-.153-.2403-.292-.2284Z" style="fill:#214e5a;"/><path d="M22.4759,90.8855c-1.8866-5.661-2.1442-11.8884-1.0585-17.7648.0761-.3734-.4991-.4812-.5718-.1171-1.0768,5.9144-.8936,12.2184,1.0725,17.9283.046.3373.5679.2887.5579-.0463h0Z" style="fill:#214e5a;"/><path d="M21.7919,71.3285c.2007.0273.3623-.2068.282-.3867.0914-.433.24-.8536.3855-1.2695.0516-.147-.0317-.3118-.1768-.3615-.1489-.0496-.3098.0318-.3615.1768-.0792.4371-.8077,1.6993-.1293,1.8409h0Z" style="fill:#214e5a;"/><path d="M126.6207,97.9765c.3738-.0141.3416-.598-.0318-.5759-.375.0136-.3405.5981.0318.5759Z" style="fill:#214e5a;"/><path d="M121.6914,96.9738c-.531-2.3698-.9598-4.7498-1.0406-7.189.0159-.1172-.1112-.2522-.2582-.2641-.9169-.1232.558,6.7875.7247,7.5603.0703.3744.6467.2579.5741-.1072Z" style="fill:#214e5a;"/><path d="M113.9969,82.5927c.45-.0199.2854-.6325.4125-.9385.2438-.2116-.0157-.5869-.3112-.4734-.3607.2092-.2666.7518-.3616,1.1101-.0198.1529.1152.29.2603.3019h0Z" style="fill:#214e5a;"/><path d="M113.3977,88.5256c.1549-.0099.28-.1469.2701-.3018-.0189-.6727-.126-1.3301-.0505-2.0037.1809-.1595.0462-.4812-.1943-.4758-.7248.077-.2766,1.9636-.3273,2.5112.0096.1552.1465.2784.302.2701Z" style="fill:#214e5a;"/><path d="M113.4037,85.7433h.0137c-.0042,0-.0076-.0022-.0117-.002,0,.0013-.0007.002-.002.002Z" style="fill:#214e5a;"/><path d="M113.4173,85.7433c.0028.0002.0054.0018.0078,0h-.0078Z" style="fill:#214e5a;"/><path d="M151.8285,79.0996c-2.9929,4.9272-2.7692,11.4536-2.0854,16.9993.0206.3991.6375.3552.6079-.0337-.6843-5.3441-.8429-11.2055,1.6284-16.1535.0758-.1255.1727-.2881.2841-.4349.2498-.2806-.1927-.6558-.4349-.3773h0Z" style="fill:#214e5a;"/><path d="M143.9925,91.8039c.0215-.283-.3604-.4208-.5261-.1748-.0284,3.265.8429,6.5565,1.2967,9.7946.0219.159.1891.2642.3416.2363.1608-.0317.2582-.1847.2343-.3436-.486-3.1631-1.2045-6.311-1.3464-9.5125h-.0001Z" style="fill:#214e5a;"/><path d="M146.7672,95.5112c-.3674.0142-.3356.5885.0318.5679.3674-.0141.3354-.5885-.0318-.5679Z" style="fill:#214e5a;"/><path d="M47.061,76.8323c.0197-.1867-.1373-.3535-.318-.3674-.4395-.0106-.3752.5158-.429.8202-.5615,3.8866-.4431,8.2141.8936,11.8997.2808.1935.631-.2347.3606-.4598-.9893-3.8933-1.1836-7.9243-.5072-11.8926h0Z" style="fill:#214e5a;"/><path d="M50.8895,86.9313c-.26.138-.251.6958.0874.7209.4751.024.4072-.9257-.0874-.7209Z" style="fill:#214e5a;"/><path d="M34.2623,153.92c-2.0706-.2389-4.1294-.4672-6.1941-.7805-.2065-.0239-.4746-.0437-.6077.1548-.2004.2717.2043.6401.4363.392,14.3618,1.959,28.8346,2.9152,43.2917,3.8619,10.1702.6943,20.3308,1.5775,30.4937,2.3633.155.0124.2964-.1089.3079-.2642.012-.1569-.1093-.2939-.2642-.3058-22.471-2.0305-45.0377-2.912-67.4636-5.4215h0Z" style="fill:#214e5a;"/><path d="M27.3176,150.7403c-.6019-.1102-.5968.8028-.0298.5552.5914.0605,1.1576.1528,1.7635.2333-.0092-.0014-.0186-.0023-.0278-.004,14.4294,2.0566,28.9919,3.4196,43.5491,4.2478.1519.0103.2922-.107.304-.2621.0099-.1529-.1093-.2939-.2642-.3038-15.1621-.8356-30.2576-2.3308-45.2948-4.4664h0Z" style="fill:#214e5a;"/><path d="M42.1406,149.3441c-5.5196-.543-11.069-1.3353-16.5963-1.587-.143.0559-.2304.2009-.1807.3538.0923.2737.3823.1604.5977.1668,5.3792.4646,10.7686,1.029,16.1377,1.6265.3663.0336.3994-.5345.0416-.56h0Z" style="fill:#214e5a;"/><path d="M88.4733,156.3405c.3657.0317.4015-.54.0396-.564-3.9544-.3526-7.8868-.9562-11.8538-1.1063-.155.0021-.2761.1511-.2682.3.0472.3837.5116.2406.7831.2718,3.7593.2374,7.5417.7418,11.2993,1.0984h0Z" style="fill:#214e5a;"/><path d="M109.8749,160.369c4.6172.4852,9.2415.8986,13.8618,1.3604.3672.0326.3989-.5396.0415-.562-6.1581-.605-12.3191-1.1624-18.4648-1.8766-.3596-.0313-.4125.5393-.0417.564,1.5371.147,3.0682.3575,4.6032.5143h0Z" style="fill:#214e5a;"/><path d="M126.6476,163.6222c-32.6766-3.7597-65.6139-4.7203-98.271-8.6885-.3795-.0067-2.1682-.2268-1.569.5662,26.5905,2.6724,53.421,4.7225,80.1417,6.6665,6.5657.5406,13.1014,1.3943,19.6565,2.0358.1558.0123.3003-.1091.3119-.2681.0099-.1589-.1112-.2999-.2701-.3118h0Z" style="fill:#214e5a;"/><path d="M53.4693,135.631c-.3845.0107-1.4985-.4604-1.5889.0872-.0098.155.1094.29.2622.304,16.6299,2.5584,34.1058,4.1235,50.6449,4.4512.0099-.1537-.1092-.2927-.262-.3026-16.3789-1.1758-32.8413-1.7637-49.0562-4.5397h0Z" style="fill:#214e5a;"/><path d="M107.6606,141.5616c6.9498.433,13.9306,1.4278,20.8917,2.0552.3659.0328.4002-.5385.0417-.5618-7.0147-.6153-14.0368-1.6708-21.0368-2.0479-.3631.062-.252.626.1034.5545h0Z" style="fill:#214e5a;"/><path d="M99.3473,142.9526c.012-.1549-.1072-.286-.2601-.2999-5.3292-.4944-10.655-.991-15.9806-1.5192-5.5352-.5614-11.0729-1.0776-16.6182-1.5272-3.4392-.1688-6.8989-.801-10.3347-.6437-.5493.0908-.3418.831.1174.5494,14.2767.5887,28.5222,2.5264,42.7764,3.6984.1495.0145.2883-.1086.2998-.2579h0Z" style="fill:#214e5a;"/><path d="M126.1963,146.2886c.0298-.1489-.0695-.3038-.2203-.3336-.7747-.145-1.551-.284-2.3296-.421-.7249-.1251-1.4517-.2423-2.1825-.3257-.153-.0179-.2919.1112-.3019.2601-.012.1589.1072.284.2603.3019,1.4795.1791,2.9709.4669,4.4404.7388.1482.028.3024-.0668.3336-.2205h0Z" style="fill:#214e5a;"/><path d="M107.8472,144.3662c2.2598.2699,4.5197.5241,6.7799.7844.1492.0183.2865-.1088.2979-.2562.0184-.2946-.3042-.3114-.5222-.3277-2.2581-.2562-4.5139-.5183-6.77-.7824-.1509-.0179-.2859.1112-.2979.2562-.0178.2902.297.3095.5123.3257Z" style="fill:#214e5a;"/><path d="M42.1373,135.1631c-.0225-.4596-.6331-.2743-.9473-.3396-5.5225-.4343-11.0911-.3036-16.5725-1.1496-.3652-.0748-.47.4902-.1133.5578,5.7249.8822,11.5645.7421,17.3331,1.1898.1495.0161.2883-.1091.2999-.2584h0Z" style="fill:#214e5a;"/><path d="M27.5924,135.9219c-.3752-.03-.4131.5534-.0417.5779,2.7783.2429,5.5818.3372,8.345.7129.3665.0781.4866-.4976.1172-.5699-2.7882-.3832-5.6162-.4734-8.4204-.7209h-.0001Z" style="fill:#214e5a;"/><path d="M111.7025,155.8904c-.3723-.0292-.4043.5425-.0415.566,4.2256.2742,8.479.3285,12.688.7605.1433.0557.3138-.0351.3633-.1786.1335-.6721-1.5182-.4381-1.96-.5541-3.6821-.2173-7.3661-.4038-11.0498-.5937h0Z" style="fill:#214e5a;"/><path d="M124.5133,152.8442c-2.011-.2261-4.0399-.2566-6.0588-.3834-.1549-.0059-.2939.1073-.3059.2642-.0118.153.1094.2999.2642.3079,1.9956.1238,3.9987.1592,5.9856.3773.3639.0735.4819-.4956.115-.5659h0Z" style="fill:#214e5a;"/><path d="M94.5489,157.0005c9.9158,1.0135,19.9054.9644,29.8351,1.7041.0839.079.2124.1014.3171.0515.3815-.2236.0045-.6392-.3217-.6275-1.2502-.1434-2.512-.167-3.7673-.2443-8.6764-.4461-17.3708-.6061-26.0215-1.4537-.3757-.0327-.4004.5455-.0417.5699Z" style="fill:#214e5a;"/><path d="M91.8964,156.0241c-.3751-.0797-.4666.5116-.0869.5604-.0032-.0008-.007-.0017-.0105-.0024.4741.2021.603-.5048.0974-.558Z" style="fill:#214e5a;"/></g></g></g></svg>